<svg version="1.1" width="113.386" height="113.386" xmlns="http://www.w3.org/2000/svg" xmlns:xlink="http://www.w3.org/1999/xlink" id="svg51514" overflow="hidden"><defs id="defs51518"></defs><g id="g51520" transform="matrix(3.77953,0,0,3.77953,-579.998,-669.307)"><rect x="153.458" y="177.087" ry="5" width="30" height="30" id="rect44505" stroke-width="0.252779" fill="#A4A69A" fill-opacity="1"/><path d=" M 167.378 184.588 L 167.378 186.588 L 164.299 186.588 L 163.298 189.587 L 164.298 186.588 L 159.958 186.588 L 159.958 189.587 L 163.297 189.587 L 159.958 199.587 L 163.121 199.587 L 163.121 199.587 L 171.458 199.587 L 173.958 199.587 L 174.458 199.587 L 176.958 199.587 L 176.958 196.587 L 176.958 189.587 L 176.958 186.588 L 174.458 186.588 L 173.958 186.588 L 170.378 186.588 L 170.378 184.588 Z M 166.46 189.587 L 168.959 189.587 L 171.458 189.587 L 173.958 189.587 L 173.958 196.587 L 171.458 196.587 L 164.123 196.587 Z" id="rect3296-5-0-8-0-7-2" stroke="none" stroke-width="0.2" stroke-dasharray="" stroke-opacity="1" fill="#010101" fill-opacity="1"/></g></svg>