<svg version="1.1" width="84.0532" height="121.701" xmlns="http://www.w3.org/2000/svg" xmlns:xlink="http://www.w3.org/1999/xlink" id="svg27867" overflow="hidden"><defs id="defs27871"></defs><g id="g27873" transform="matrix(3.77953,0,0,3.77953,-213.004,-30.4321)"><rect x="64.4962" y="8.15183" width="3" height="2" id="rect3296-5-0-2-8-1-5-3-0-6-0-8-7-4" stroke="#A4A69A" stroke-width="0.2" stroke-dasharray="" stroke-opacity="1" fill="#010101" fill-opacity="1"/><path d=" M 56.4962 10.1518 L 56.4962 13.1516 L 59.8355 13.1516 C 60.5243 11.403 62.181 10.2263 64.059 10.1518 Z" id="rect2121-8-5-5-3" stroke="#A4A69A" stroke-width="0.2" stroke-dasharray="" stroke-opacity="1" fill="#010101" fill-opacity="1"/><path d=" M 64.1014 10.1477 C 62.2068 10.2062 60.5291 11.3876 59.8355 13.1516 L 64.4962 13.1516 L 68.4965 13.1516 L 68.4965 10.1518 L 64.4962 10.1518 C 64.3647 10.145 64.233 10.1436 64.1014 10.1477 Z" id="rect2121-4-8" stroke="#A4A69A" stroke-width="0.2" stroke-dasharray="" stroke-opacity="1" fill="#010101" fill-opacity="1"/><rect x="68.4965" y="10.1518" width="3.99994" height="3.00002" id="rect12776-2-6-4" stroke="#A4A69A" stroke-width="0.2" stroke-dasharray="" stroke-opacity="1" fill="#010101" fill-opacity="1"/><rect x="72.4964" y="10.1518" width="0.999982" height="3.00003" id="rect2444-3" stroke="#A4A69A" stroke-width="0.2" stroke-dasharray="" stroke-opacity="1" fill="#010101" fill-opacity="1"/><path d=" M 59.8355 13.1516 L 56.4962 23.1521 L 59.6593 23.1521 L 62.5237 14.5733 C 62.8069 13.7244 63.6013 13.1519 64.4962 13.1516 Z" id="rect3322-2-2-2-0-7-7-7-7-8-5-0-8" stroke="#A4A69A" stroke-width="0.2" stroke-dasharray="" stroke-opacity="1" fill="#010101" fill-opacity="1"/><rect x="64.4962" y="13.1516" width="3" height="7.00021" id="rect9865-5-5-8" stroke="#A4A69A" stroke-width="0.2" stroke-dasharray="" stroke-opacity="1" fill="#010101" fill-opacity="1"/><rect x="67.4962" y="15.1519" width="0.999985" height="3" id="rect3296-5-0-2-8-9-0-2-3-0" stroke="#A4A69A" stroke-width="0.2" stroke-dasharray="" stroke-opacity="1" fill="#010101" fill-opacity="1"/><rect x="68.4962" y="13.1516" width="3" height="7.00021" id="rect12778-8-8-1" stroke="#A4A69A" stroke-width="0.2" stroke-dasharray="" stroke-opacity="1" fill="#010101" fill-opacity="1"/><g id="g23840"><rect x="71.4962" y="13.1516" width="2.00022" height="2" id="rect3296-5-0-2-8-8-1-9-3-7-5-2" stroke="#A4A69A" stroke-width="0.2" stroke-dasharray="" stroke-opacity="1" fill="#010101" fill-opacity="1"/><rect x="71.4962" y="18.1516" width="2.00022" height="2" id="rect3296-5-0-2-8-8-1-4-9-5-5-2-6" stroke="#A4A69A" stroke-width="0.2" stroke-dasharray="" stroke-opacity="1" fill="#010101" fill-opacity="1"/></g><rect x="71.4962" y="15.1516" width="2.00022" height="3" id="rect3296-5-0-2-8-8-2-7-0-205-9" stroke="#A4A69A" stroke-width="0.2" stroke-dasharray="" stroke-opacity="1" fill="#010101" fill-opacity="1"/><rect x="73.4964" y="10.1519" width="3" height="13" id="rect3322-6-0-1-0-3-4-9" stroke="#A4A69A" stroke-width="0.2" stroke-dasharray="" stroke-opacity="1" fill="#010101" fill-opacity="1"/><rect x="76.4964" y="15.1519" width="2" height="3" id="rect3296-5-0-2-8-1-6-2-4-5-84-4" stroke="#A4A69A" stroke-width="0.2" stroke-dasharray="" stroke-opacity="1" fill="#010101" fill-opacity="1"/><path d=" M 60.6608 20.1517 L 59.6593 23.1521 L 68.4965 23.1521 L 68.4965 20.1517 Z" id="rect3296-5-0-2-7-5-8-9-6-2" stroke="#A4A69A" stroke-width="0.2" stroke-dasharray="" stroke-opacity="1" fill="#010101" fill-opacity="1"/><rect x="68.4962" y="20.1518" width="2.99971" height="3.00007" id="rect15880" stroke="#A4A69A" stroke-width="0.2" stroke-dasharray="" stroke-opacity="1" fill="#010101" fill-opacity="1"/><rect x="71.4962" y="20.1518" width="2.00022" height="3.00001" id="rect15882" stroke="#A4A69A" stroke-width="0.2" stroke-dasharray="" stroke-opacity="1" fill="#010101" fill-opacity="1"/><path d=" M 64.9685 23.4017 L 64.9685 23.9019 L 56.4962 23.9019 L 56.4962 26.9017 L 76.4965 26.9017 L 76.4965 23.9019 L 67.9683 23.9019 L 67.9683 23.4017 Z" id="rect3296-5-6-7-8-7-3-61-0" stroke="#A4A69A" stroke-width="0.2" stroke-dasharray="" stroke-opacity="1" fill="#010101" fill-opacity="1"/><rect x="56.4964" y="27.1519" width="8.5" height="3" id="rect34096-1-15-0" stroke="#A4A69A" stroke-width="0.2" stroke-dasharray="" stroke-opacity="1" fill="#010101" fill-opacity="1"/><path d=" M 64.9964 27.1518 L 64.9964 30.1516 L 64.9964 32.3081 L 66.4852 30.1516 L 76.4965 30.1516 L 76.4965 27.1518 L 68.5559 27.1518 Z" id="rect3296-5-01-7-5-6-92-2" stroke="#A4A69A" stroke-width="0.2" stroke-dasharray="" stroke-opacity="1" fill="#010101" fill-opacity="1"/><rect x="56.4964" y="30.1519" width="3" height="10" id="rect3320-0-26-6-3-9-8" stroke="#A4A69A" stroke-width="0.2" stroke-dasharray="" stroke-opacity="1" fill="#010101" fill-opacity="1"/><path d=" M 62.84 30.1516 L 59.4965 34.9953 L 59.4965 37.1517 L 61.653 37.1517 L 64.9964 32.3081 L 64.9964 30.1516 Z" id="rect3296-4-4-0-3-9-5-1-9" stroke="#A4A69A" stroke-width="0.2" stroke-dasharray="" stroke-opacity="1" fill="#010101" fill-opacity="1"/><path d=" M 66.4852 30.1516 L 64.9964 32.3081 L 64.9964 37.1517 L 67.9962 37.1517 L 67.9962 30.1516 Z" id="rect3322-6-0-8-7-5-2-5-86-0" stroke="#A4A69A" stroke-width="0.2" stroke-dasharray="" stroke-opacity="1" fill="#010101" fill-opacity="1"/><path d=" M 73.4962 30.1516 L 67.9962 37.1517 L 71.8115 37.1517 L 73.4962 35.0077 Z" id="rect3322-2-7-9-0-5-8-0" stroke="#A4A69A" stroke-width="0.2" stroke-dasharray="" stroke-opacity="1" fill="#010101" fill-opacity="1"/><rect x="73.4962" y="30.1516" width="3.00026" height="7.0002" id="rect39974-6-0-9" stroke="#A4A69A" stroke-width="0.2" stroke-dasharray="" stroke-opacity="1" fill="#010101" fill-opacity="1"/><rect x="59.4964" y="37.1519" width="17" height="3" id="rect3296-4-8-8-4-3-8" stroke="#A4A69A" stroke-width="0.2" stroke-dasharray="" stroke-opacity="1" fill="#010101" fill-opacity="1"/></g></svg>