<svg version="1.1" width="76.4926" height="57.4495" xmlns="http://www.w3.org/2000/svg" xmlns:xlink="http://www.w3.org/1999/xlink" id="svg32469" overflow="hidden"><defs id="defs32473"></defs><g id="g32475" transform="matrix(3.77953,0,0,3.77953,-409.962,-688.817)"><path d=" M 116.41 184.343 C 116.345 184.342 116.279 184.343 116.213 184.345 C 114.318 184.403 112.641 185.585 111.947 187.349 L 108.608 197.349 L 111.771 197.349 L 114.635 188.77 C 114.919 187.921 115.713 187.349 116.608 187.349 L 120.108 187.349 L 120.108 187.349 L 120.108 189.612 L 120.108 194.349 L 123.108 194.349 L 123.108 189.612 L 123.108 187.349 L 124.108 187.349 L 124.108 184.349 L 120.608 184.349 L 116.608 184.349 C 116.542 184.346 116.476 184.344 116.41 184.343 Z M 125.608 184.35 L 125.608 197.35 L 128.608 197.35 L 128.608 184.35 Z" id="rect3322-2-2-2-0-7-7-7-7-8-5-1-1-2" stroke="#A4A69A" stroke-width="0.2" stroke-dasharray="" stroke-opacity="1" fill="#010101" fill-opacity="1"/></g></svg>