<svg version="1.1" width="76.4944" height="121.7" xmlns="http://www.w3.org/2000/svg" xmlns:xlink="http://www.w3.org/1999/xlink" id="svg33211" overflow="hidden"><defs id="defs33215"></defs><g id="g33217" transform="matrix(3.77953,0,0,3.77953,-522.778,-671.774)"><path d=" M 146.146 179.84 L 146.146 179.841 C 144.22 179.866 142.501 181.054 141.797 182.847 L 138.457 192.847 L 141.62 192.847 L 141.622 192.84 L 150.457 192.84 L 150.457 192.84 L 155.457 192.84 L 158.457 192.84 L 158.457 179.84 L 155.457 179.84 L 155.457 183.84 L 153.734 183.84 L 146.457 183.84 L 144.686 183.84 C 145.064 183.223 145.734 182.847 146.457 182.846 L 146.457 182.839 L 146.457 179.846 C 146.353 179.841 146.249 179.839 146.146 179.84 Z M 143.626 186.84 L 155.457 186.84 L 155.457 189.84 L 150.457 189.84 L 142.624 189.84 Z M 138.457 193.09 L 138.457 196.09 L 146.93 196.09 L 146.93 196.59 L 149.929 196.59 L 149.929 196.09 L 158.458 196.09 L 158.458 193.09 Z M 138.457 199.84 L 138.457 209.84 L 141.458 209.84 L 158.458 209.84 L 158.458 206.84 L 141.458 206.84 L 141.458 199.84 Z" id="rect3322-2-2-2-0-7-7-7-7-8-9-1-6" stroke="#A4A69A" stroke-width="0.2" stroke-dasharray="" stroke-opacity="1" fill="#010101" fill-opacity="1"/></g></svg>