<svg version="1.1" width="84.0523" height="121.701" xmlns="http://www.w3.org/2000/svg" xmlns:xlink="http://www.w3.org/1999/xlink" id="svg29385" overflow="hidden"><defs id="defs29389"></defs><g id="g29391" transform="matrix(3.77953,0,0,3.77953,-60.6698,-18.8737)"><rect x="24.1911" y="5.09368" width="3" height="2" id="rect3296-5-0-2-8-1-5-3-0-6-5-1-2-5" stroke="#A4A69A" stroke-width="0.2" stroke-dasharray="" stroke-opacity="1" fill="#010101" fill-opacity="1"/><path d=" M 16.191 7.09318 L 16.191 10.093 L 19.5304 10.093 C 20.2192 8.34433 21.8759 7.16762 23.7539 7.09318 Z" id="rect2121-8-5-5-3-8-7" stroke="#A4A69A" stroke-width="0.2" stroke-dasharray="" stroke-opacity="1" fill="#010101" fill-opacity="1"/><path d=" M 23.9939 7.08695 C 23.9281 7.08628 23.8623 7.08698 23.7965 7.08905 C 21.9019 7.1476 20.2242 8.32897 19.5306 10.093 L 24.1913 10.093 L 28.1916 10.093 L 28.1916 10.0935 L 31.6911 10.0935 L 31.6911 7.09318 L 28.1916 7.09318 L 24.1913 7.09318 C 24.1255 7.08975 24.0597 7.08768 23.9939 7.08698 Z" id="rect2121-4-8-1-8" stroke="#A4A69A" stroke-width="0.2" stroke-dasharray="" stroke-opacity="1" fill="#010101" fill-opacity="1"/><rect x="31.6909" y="7.09368" width="1.50011" height="3" id="rect10209-6-6" stroke="#A4A69A" stroke-width="0.2" stroke-dasharray="" stroke-opacity="1" fill="#010101" fill-opacity="1"/><path d=" M 19.5304 10.093 L 16.191 20.0934 L 19.3541 20.0934 L 22.2186 11.5146 C 22.5018 10.6658 23.2962 10.0932 24.1911 10.093 Z" id="rect3322-2-2-2-0-7-7-7-7-8-5-0-8-9-0" stroke="#A4A69A" stroke-width="0.2" stroke-dasharray="" stroke-opacity="1" fill="#010101" fill-opacity="1"/><rect x="27.6911" y="10.0935" width="2.99982" height="7.00009" id="rect1355-2-9-0-9" stroke="#A4A69A" stroke-width="0.2" stroke-dasharray="" stroke-opacity="1" fill="#010101" fill-opacity="1"/><rect x="33.191" y="7.09368" width="3" height="13" id="rect3322-6-2-3-8-3-6-6" stroke="#A4A69A" stroke-width="0.2" stroke-dasharray="" stroke-opacity="1" fill="#010101" fill-opacity="1"/><rect x="36.191" y="12.0937" width="2" height="3" id="rect3296-5-0-2-8-1-8-3-9-8-0-2" stroke="#A4A69A" stroke-width="0.2" stroke-dasharray="" stroke-opacity="1" fill="#010101" fill-opacity="1"/><path d=" M 20.3556 17.0936 L 19.3541 20.0934 L 27.6911 20.0934 L 30.6909 20.0934 L 30.6909 17.0936 L 27.6911 17.0936 Z" id="rect3296-5-0-8-0-0-3-7-1" stroke="#A4A69A" stroke-width="0.2" stroke-dasharray="" stroke-opacity="1" fill="#010101" fill-opacity="1"/><rect x="30.6909" y="17.0937" width="2.50017" height="3" id="rect3296-5-0-2-8-1-0-5-2-9-3-2-9" stroke="#A4A69A" stroke-width="0.2" stroke-dasharray="" stroke-opacity="1" fill="#010101" fill-opacity="1"/><path d=" M 16.191 20.3436 L 16.191 23.3434 L 20.6909 23.3434 L 20.6909 23.8436 L 23.6908 23.8436 L 23.6908 23.3434 L 28.691 23.3434 L 28.691 23.8436 L 31.6908 23.8436 L 31.6908 23.3434 L 36.1908 23.3434 L 36.1908 20.3436 Z" id="rect3296-5-6-79-7-6-7-8-1" stroke="#A4A69A" stroke-width="0.2" stroke-dasharray="" stroke-opacity="1" fill="#010101" fill-opacity="1"/><path d=" M 16.1907 24.094 L 16.1907 27.0938 L 21.5284 27.0938 L 24.691 27.0938 L 25.6925 24.094 L 22.5299 24.094 Z" id="rect3296-5-01-5-0-6-0-4-1" stroke="#A4A69A" stroke-width="0.2" stroke-dasharray="" stroke-opacity="1" fill="#010101" fill-opacity="1"/><path d=" M 25.6925 24.094 L 24.691 27.0938 L 36.1911 27.0938 L 36.1911 24.094 Z" id="rect3296-5-01-5-9-8-5-7" stroke="#A4A69A" stroke-width="0.2" stroke-dasharray="" stroke-opacity="1" fill="#010101" fill-opacity="1"/><path d=" M 16.1907 27.0938 L 16.1907 37.0937 L 18.1891 37.0937 L 19.1911 34.0933 L 19.1911 27.0938 Z" id="rect3320-0-4-1-2-4-5" stroke="#A4A69A" stroke-width="0.2" stroke-dasharray="" stroke-opacity="1" fill="#010101" fill-opacity="1"/><path d=" M 21.5284 27.0938 L 19.1911 34.0934 L 19.1911 34.0939 L 22.3537 34.0939 L 24.691 27.0938 Z" id="rect3322-2-2-7-2-7-03-6" stroke="#A4A69A" stroke-width="0.2" stroke-dasharray="" stroke-opacity="1" fill="#010101" fill-opacity="1"/><rect x="24.6909" y="27.094" width="3" height="6.99999" id="rect3322-6-0-8-9-1-0-2-8" stroke="#A4A69A" stroke-width="0.2" stroke-dasharray="" stroke-opacity="1" fill="#010101" fill-opacity="1"/><path d=" M 33.1907 27.0938 L 27.6908 34.0939 L 31.5061 34.0939 L 33.1907 31.9498 Z" id="rect3322-2-7-4-8-1-1-5" stroke="#A4A69A" stroke-width="0.2" stroke-dasharray="" stroke-opacity="1" fill="#010101" fill-opacity="1"/><rect x="33.1909" y="27.094" width="3" height="7" id="rect3322-2-4-2-2-6-9" stroke="#A4A69A" stroke-width="0.2" stroke-dasharray="" stroke-opacity="1" fill="#010101" fill-opacity="1"/><path d=" M 19.1911 34.0939 L 18.1891 37.0937 L 36.1911 37.0937 L 36.1911 34.0939 Z" id="rect3296-4-3-4-6-5-1" stroke="#A4A69A" stroke-width="0.2" stroke-dasharray="" stroke-opacity="1" fill="#010101" fill-opacity="1"/></g></svg>