<svg version="1.1" width="84.0508" height="121.701" xmlns="http://www.w3.org/2000/svg" xmlns:xlink="http://www.w3.org/1999/xlink" id="svg48308" overflow="hidden"><defs id="defs48312"></defs><g id="g48314" transform="matrix(3.77953,0,0,3.77953,-321.91,-31.3763)"><rect x="102.311" y="8.40166" width="3" height="2" id="rect3296-5-0-2-8-1-5-3-0-6-2-0-7-2-5-0" stroke="#A4A69A" stroke-width="0.2" stroke-dasharray="" stroke-opacity="1" fill="#010101" fill-opacity="1"/><g id="g47214"><path d=" M 92.9161 10.3972 C 91.0215 10.4557 89.3439 11.6371 88.6502 13.4011 L 85.3109 23.4016 L 88.474 23.4016 L 100.311 23.4016 L 100.311 20.4017 L 89.4755 20.4017 L 91.3379 14.8227 C 91.6212 13.9737 92.4159 13.4011 93.3109 13.4011 L 96.2539 13.4011 L 96.2539 13.4016 L 101.31 13.4016 L 101.31 10.4018 L 97.3112 10.4018 L 97.3112 10.4013 L 93.3109 10.4013 C 93.1794 10.3945 93.0477 10.3931 92.9161 10.3972 Z" id="rect3322-2-2-2-0-7-7-7-7-8-9-5-9" stroke="#A4A69A" stroke-width="0.2" stroke-dasharray="" stroke-opacity="1" fill="#010101" fill-opacity="1"/><rect x="102.311" y="10.4017" width="3" height="13" id="rect3322-6-4-0-1-6-7" stroke="#A4A69A" stroke-width="0.2" stroke-dasharray="" stroke-opacity="1" fill="#010101" fill-opacity="1"/></g><rect x="97.3103" y="13.4018" width="3" height="6.99968" id="rect3322-6-0-3-9-3-7-2-9" stroke="#A4A69A" stroke-width="0.2" stroke-dasharray="" stroke-opacity="1" fill="#010101" fill-opacity="1"/><g id="g47210"><rect x="100.311" y="13.4017" width="2.00022" height="2" id="rect3296-5-0-2-8-8-1-9-3-7-5-2-1" stroke="#A4A69A" stroke-width="0.2" stroke-dasharray="" stroke-opacity="1" fill="#010101" fill-opacity="1"/><rect x="100.311" y="18.4017" width="2.00022" height="2" id="rect3296-5-0-2-8-8-1-4-9-5-5-2-6-6" stroke="#A4A69A" stroke-width="0.2" stroke-dasharray="" stroke-opacity="1" fill="#010101" fill-opacity="1"/></g><rect x="105.311" y="15.4017" width="2" height="3" id="rect3296-5-0-2-8-2-7-2-6-4" stroke="#A4A69A" stroke-width="0.2" stroke-dasharray="" stroke-opacity="1" fill="#010101" fill-opacity="1"/><path d=" M 85.3107 27.4015 L 85.3107 30.4018 L 97.3952 30.4018 L 88.3105 37.4019 L 88.3105 40.4017 L 89.3321 40.4017 L 105.311 40.4017 L 105.311 37.4019 L 93.2254 37.4019 L 102.311 30.4018 L 102.311 27.4015 Z" id="rect3296-0-4-4-90-3" stroke="#A4A69A" stroke-width="0.2" stroke-dasharray="" stroke-opacity="1" fill="#010101" fill-opacity="1"/></g></svg>