<svg version="1.1" width="84.0519" height="121.701" xmlns="http://www.w3.org/2000/svg" xmlns:xlink="http://www.w3.org/1999/xlink" id="svg44967" overflow="hidden"><defs id="defs44971"></defs><g id="g44973" transform="matrix(3.77953,0,0,3.77953,-525.897,-28.7314)"><rect x="147.282" y="7.70186" width="3" height="2" id="rect3296-5-0-2-8-1-5-3-0-6-2-1-0" stroke="#A4A69A" stroke-width="0.2" stroke-dasharray="" stroke-opacity="1" fill="#010101" fill-opacity="1"/><path d=" M 139.282 9.70139 L 139.282 12.7012 L 142.622 12.7012 C 143.31 10.9525 144.967 9.77582 146.845 9.70139 Z" id="rect2121-8-5-7-1" stroke="#A4A69A" stroke-width="0.2" stroke-dasharray="" stroke-opacity="1" fill="#010101" fill-opacity="1"/><path d=" M 147.085 9.69527 C 147.019 9.6946 146.953 9.6953 146.887 9.69737 C 144.993 9.75592 143.315 10.9373 142.622 12.7013 L 147.282 12.7013 L 151.283 12.7013 L 151.283 12.7018 L 154.782 12.7018 L 154.782 9.70147 L 151.283 9.70147 L 147.282 9.70147 C 147.217 9.69803 147.151 9.69596 147.085 9.69527 Z" id="rect2121-0-0" stroke="#A4A69A" stroke-width="0.2" stroke-dasharray="" stroke-opacity="1" fill="#010101" fill-opacity="1"/><g id="g36148" stroke="#A4A69A" stroke-opacity="1"><rect x="154.782" y="9.70147" width="1.50009" height="3.00046" id="rect36142" stroke="#A4A69A" stroke-width="0.2" stroke-dasharray="" stroke-opacity="1" fill="#010101" fill-opacity="1"/><rect x="153.782" y="19.7019" width="2.49994" height="2.99999" id="rect36144" stroke="#A4A69A" stroke-width="0.2" stroke-dasharray="" stroke-opacity="1" fill="#010101" fill-opacity="1"/></g><path d=" M 142.622 12.7012 L 139.282 22.7016 L 142.445 22.7016 L 145.31 14.1228 C 145.593 13.274 146.387 12.7014 147.282 12.7012 Z" id="rect3322-2-2-2-0-7-7-7-7-8-5-1-4" stroke="#A4A69A" stroke-width="0.2" stroke-dasharray="" stroke-opacity="1" fill="#010101" fill-opacity="1"/><path d=" M 145.117 14.7016 L 144.115 17.7015 L 150.782 17.7015 L 150.782 14.7016 Z" id="rect14193-7-7" stroke="#A4A69A" stroke-width="0.2" stroke-dasharray="" stroke-opacity="1" fill="#010101" fill-opacity="1"/><rect x="150.782" y="12.7017" width="2.99982" height="7.00009" id="rect1355-5-7-0" stroke="#A4A69A" stroke-width="0.2" stroke-dasharray="" stroke-opacity="1" fill="#010101" fill-opacity="1"/><g id="g25697" stroke="#A4A69A" stroke-opacity="1"><rect x="153.782" y="12.7019" width="2.49994" height="2" id="rect3296-5-0-2-8-8-1-9-3-9-8-1-8" stroke="#A4A69A" stroke-width="0.200001" stroke-dasharray="" stroke-opacity="1" fill="#010101" fill-opacity="1"/><rect x="153.782" y="17.7019" width="2.49994" height="2" id="rect3296-5-0-2-8-8-1-4-9-5-53-8-9-9" stroke="#A4A69A" stroke-width="0.200001" stroke-dasharray="" stroke-opacity="1" fill="#010101" fill-opacity="1"/></g><rect x="153.782" y="14.7019" width="2.49994" height="3" id="rect3296-5-0-2-8-8-2-7-6-0-4-6" stroke="#A4A69A" stroke-width="0.200001" stroke-dasharray="" stroke-opacity="1" fill="#010101" fill-opacity="1"/><rect x="156.282" y="9.70192" width="3" height="13" id="rect3322-6-0-1-0-7-5-9-4" stroke="#A4A69A" stroke-width="0.2" stroke-dasharray="" stroke-opacity="1" fill="#010101" fill-opacity="1"/><rect x="159.282" y="14.7019" width="2" height="3" id="rect3296-5-0-2-8-1-6-2-4-58-0-2-7" stroke="#A4A69A" stroke-width="0.2" stroke-dasharray="" stroke-opacity="1" fill="#010101" fill-opacity="1"/><path d=" M 143.447 19.7018 L 142.445 22.7016 L 150.782 22.7016 L 153.782 22.7016 L 153.782 19.7018 L 150.782 19.7018 Z" id="rect3296-5-0-8-0-7-4-9" stroke="#A4A69A" stroke-width="0.2" stroke-dasharray="" stroke-opacity="1" fill="#010101" fill-opacity="1"/><rect x="139.282" y="26.7019" width="19.9998" height="3" id="rect3296-5-8-8-6-6-4" stroke="#A4A69A" stroke-width="0.2" stroke-dasharray="" stroke-opacity="1" fill="#010101" fill-opacity="1"/><rect x="139.282" y="29.7019" width="2.99975" height="6.99998" id="rect20475-0-4" stroke="#A4A69A" stroke-width="0.2" stroke-dasharray="" stroke-opacity="1" fill="#010101" fill-opacity="1"/><g id="g20479-6-7" stroke="#A4A69A" stroke-width="0.2" stroke-dasharray="" stroke-opacity="1" fill="#010101" fill-opacity="1" transform="matrix(1,0,0,1,-2.91528,-133.183)"><path d=" M 147.535 162.885 L 145.197 169.885 L 148.36 169.885 L 150.697 162.885 Z" id="rect19506-4-3" stroke="#A4A69A" stroke-width="0.2" stroke-dasharray="" stroke-opacity="1" fill="#010101" fill-opacity="1"/><path d=" M 156.86 162.885 L 159.197 169.885 L 156.035 169.885 L 153.697 162.885 Z" id="rect19506-1-1-5" stroke="#A4A69A" stroke-width="0.2" stroke-dasharray="" stroke-opacity="1" fill="#010101" fill-opacity="1"/></g><rect x="147.782" y="29.7019" width="3" height="7" id="rect3320-1-5-6-9-6-5-1-9-5" stroke="#A4A69A" stroke-width="0.2" stroke-dasharray="" stroke-opacity="1" fill="#010101" fill-opacity="1"/><rect x="156.282" y="29.7018" width="2.99981" height="7.00009" id="rect20469-5-8" stroke="#A4A69A" stroke-width="0.2" stroke-dasharray="" stroke-opacity="1" fill="#010101" fill-opacity="1"/><rect x="139.282" y="36.7019" width="19.9998" height="3.00008" id="rect20473-6-6" stroke="#A4A69A" stroke-width="0.2" stroke-dasharray="" stroke-opacity="1" fill="#010101" fill-opacity="1"/></g></svg>