<svg version="1.1" width="84.053" height="123.591" xmlns="http://www.w3.org/2000/svg" xmlns:xlink="http://www.w3.org/1999/xlink" id="svg12688" overflow="hidden"><defs id="defs12692"></defs><g id="g12694" transform="matrix(3.77953,0,0,3.77953,-529.994,-72.655)"><rect x="148.366" y="19.3233" width="3" height="2" id="rect3296-5-0-2-8-1-5-3-0-6-0-8-7-4-4" stroke="#A4A69A" stroke-width="0.2" stroke-dasharray="" stroke-opacity="1" fill="#010101" fill-opacity="1"/><path d=" M 140.366 21.3233 L 140.366 24.3231 L 143.706 24.3231 C 144.395 22.5744 146.051 21.3977 147.929 21.3233 Z" id="rect2121-8-5-5-3-6" stroke="#A4A69A" stroke-width="0.2" stroke-dasharray="" stroke-opacity="1" fill="#010101" fill-opacity="1"/><path d=" M 147.972 21.3191 C 146.077 21.3777 144.399 22.5591 143.706 24.3231 L 148.366 24.3231 L 152.367 24.3231 L 152.367 21.3233 L 148.366 21.3233 C 148.235 21.3164 148.103 21.3151 147.972 21.3192 Z" id="rect2121-4-8-4" stroke="#A4A69A" stroke-width="0.2" stroke-dasharray="" stroke-opacity="1" fill="#010101" fill-opacity="1"/><rect x="152.367" y="21.3233" width="3.99994" height="3.00002" id="rect12776-2-6-4-5" stroke="#A4A69A" stroke-width="0.2" stroke-dasharray="" stroke-opacity="1" fill="#010101" fill-opacity="1"/><rect x="156.367" y="21.3233" width="0.999982" height="3.00003" id="rect2444-3-7" stroke="#A4A69A" stroke-width="0.2" stroke-dasharray="" stroke-opacity="1" fill="#010101" fill-opacity="1"/><path d=" M 143.706 24.3231 L 140.366 34.3235 L 143.53 34.3235 L 146.394 25.7447 C 146.677 24.8959 147.472 24.3233 148.366 24.3231 Z" id="rect3322-2-2-2-0-7-7-7-7-8-5-0-8-4" stroke="#A4A69A" stroke-width="0.2" stroke-dasharray="" stroke-opacity="1" fill="#010101" fill-opacity="1"/><rect x="148.366" y="24.3231" width="3" height="7.00021" id="rect9865-5-5-8-6" stroke="#A4A69A" stroke-width="0.2" stroke-dasharray="" stroke-opacity="1" fill="#010101" fill-opacity="1"/><rect x="151.366" y="26.3233" width="1.5" height="3" id="rect3296-5-0-2-8-9-0-2-3-0-5" stroke="#A4A69A" stroke-width="0.244951" stroke-dasharray="" stroke-opacity="1" fill="#010101" fill-opacity="1"/><rect x="152.867" y="24.3233" width="3" height="7.00021" id="rect12778-8-8-1-7" stroke="#A4A69A" stroke-width="0.2" stroke-dasharray="" stroke-opacity="1" fill="#010101" fill-opacity="1"/><g id="g4237" stroke="#A4A69A" stroke-opacity="1" fill="#010101" fill-opacity="1"><rect x="155.867" y="24.3233" width="1.5" height="2" id="rect3296-5-0-2-8-8-1-9-3-7-5-2-6" stroke="#A4A69A" stroke-width="0.173196" stroke-dasharray="" stroke-opacity="1" fill="#010101" fill-opacity="1"/><rect x="155.867" y="29.3233" width="1.5" height="2" id="rect3296-5-0-2-8-8-1-4-9-5-5-2-6-0" stroke="#A4A69A" stroke-width="0.173196" stroke-dasharray="" stroke-opacity="1" fill="#010101" fill-opacity="1"/></g><rect x="155.867" y="26.3233" width="1.5" height="3" id="rect3296-5-0-2-8-8-2-7-0-205-9-6" stroke="#A4A69A" stroke-width="0.173196" stroke-dasharray="" stroke-opacity="1" fill="#010101" fill-opacity="1"/><rect x="157.367" y="21.3233" width="3" height="13" id="rect3322-6-0-1-0-3-4-9-7" stroke="#A4A69A" stroke-width="0.2" stroke-dasharray="" stroke-opacity="1" fill="#010101" fill-opacity="1"/><rect x="160.367" y="26.3233" width="2" height="3" id="rect3296-5-0-2-8-1-6-2-4-5-84-4-5" stroke="#A4A69A" stroke-width="0.2" stroke-dasharray="" stroke-opacity="1" fill="#010101" fill-opacity="1"/><path d=" M 144.531 31.3232 L 143.53 34.3235 L 152.367 34.3235 L 152.367 31.3232 Z" id="rect3296-5-0-2-7-5-8-9-6-2-8" stroke="#A4A69A" stroke-width="0.2" stroke-dasharray="" stroke-opacity="1" fill="#010101" fill-opacity="1"/><path d=" M 152.366 31.3232 L 152.366 34.3235 L 153.866 34.3235 L 155.366 34.3235 L 155.866 34.3235 L 155.866 31.3232 L 155.366 31.3232 L 153.866 31.3232 Z" id="rect15880-6" stroke="#A4A69A" stroke-width="0.2" stroke-dasharray="" stroke-opacity="1" fill="#010101" fill-opacity="1"/><path d=" M 155.866 31.3232 L 155.866 34.3235 L 157.367 34.3235 L 157.367 31.3232 Z" id="rect15882-4" stroke="#A4A69A" stroke-width="0.2" stroke-dasharray="" stroke-opacity="1" fill="#010101" fill-opacity="1"/><path d=" M 148.867 34.5731 L 148.867 35.573 L 140.367 35.573 L 140.367 38.5733 L 160.367 38.5733 L 160.367 35.573 L 151.867 35.573 L 151.867 34.5731 Z" id="rect1268" stroke="#A4A69A" stroke-width="0.2" stroke-opacity="1" fill="#010101" fill-opacity="1"/><rect x="140.367" y="38.8233" width="8.5" height="3" id="rect34096-1-15-0-8" stroke="#A4A69A" stroke-width="0.2" stroke-dasharray="" stroke-opacity="1" fill="#010101" fill-opacity="1"/><path d=" M 148.867 38.8233 L 148.867 41.8231 L 148.867 43.9796 L 150.355 41.8231 L 160.367 41.8231 L 160.367 38.8233 L 152.426 38.8233 Z" id="rect3296-5-01-7-5-6-92-2-8" stroke="#A4A69A" stroke-width="0.2" stroke-dasharray="" stroke-opacity="1" fill="#010101" fill-opacity="1"/><rect x="140.367" y="41.8233" width="3" height="10" id="rect3320-0-26-6-3-9-8-6" stroke="#A4A69A" stroke-width="0.2" stroke-dasharray="" stroke-opacity="1" fill="#010101" fill-opacity="1"/><path d=" M 146.71 41.8231 L 143.367 46.6668 L 143.367 48.8232 L 145.523 48.8232 L 148.867 43.9796 L 148.867 41.8231 Z" id="rect3296-4-4-0-3-9-5-1-9-7" stroke="#A4A69A" stroke-width="0.2" stroke-dasharray="" stroke-opacity="1" fill="#010101" fill-opacity="1"/><path d=" M 150.355 41.8231 L 148.867 43.9796 L 148.867 48.8232 L 151.866 48.8232 L 151.866 41.8231 Z" id="rect3322-6-0-8-7-5-2-5-86-0-9" stroke="#A4A69A" stroke-width="0.2" stroke-dasharray="" stroke-opacity="1" fill="#010101" fill-opacity="1"/><path d=" M 157.366 41.8231 L 151.866 48.8232 L 155.682 48.8232 L 157.366 46.6792 Z" id="rect3322-2-7-9-0-5-8-0-1" stroke="#A4A69A" stroke-width="0.2" stroke-dasharray="" stroke-opacity="1" fill="#010101" fill-opacity="1"/><rect x="157.366" y="41.8231" width="3.00026" height="7.0002" id="rect39974-6-0-9-4" stroke="#A4A69A" stroke-width="0.2" stroke-dasharray="" stroke-opacity="1" fill="#010101" fill-opacity="1"/><rect x="143.367" y="48.8233" width="17" height="3" id="rect3296-4-8-8-4-3-8-8" stroke="#A4A69A" stroke-width="0.2" stroke-dasharray="" stroke-opacity="1" fill="#010101" fill-opacity="1"/></g></svg>