<svg version="1.1" width="84.0531" height="123.59" xmlns="http://www.w3.org/2000/svg" xmlns:xlink="http://www.w3.org/1999/xlink" id="svg18644" overflow="hidden"><defs id="defs18648"></defs><g id="g18650" transform="matrix(3.77953,0,0,3.77953,-377.716,-72.6673)"><g id="g4298" stroke="#A4A69A" stroke-width="0.2" stroke-dasharray="" stroke-opacity="1" fill="#010101" fill-opacity="1"><path d=" M 107.879 21.3201 C 107.813 21.3195 107.747 21.3202 107.681 21.3222 C 105.787 21.3807 104.109 22.5622 103.415 24.3262 L 100.076 34.3266 L 103.239 34.3266 L 115.076 34.3266 L 115.576 34.3266 L 115.576 31.3268 L 115.076 31.3268 L 104.241 31.3268 L 106.103 25.7478 C 106.386 24.8988 107.181 24.3262 108.076 24.3262 L 111.019 24.3262 L 111.019 24.3267 L 116.076 24.3267 L 116.076 21.3269 L 112.076 21.3269 L 112.076 21.3263 L 108.076 21.3263 C 108.01 21.3229 107.945 21.3208 107.879 21.3201 Z" id="rect3322-2-2-2-0-7-7-7-7-8-9-5-9-7" stroke="#A4A69A" stroke-width="0.2" stroke-dasharray="" stroke-opacity="1" fill="#010101" fill-opacity="1"/><rect x="117.076" y="21.3266" width="3" height="13" id="rect3322-6-4-0-1-6-7-2" stroke="#A4A69A" stroke-width="0.2" stroke-dasharray="" stroke-opacity="1" fill="#010101" fill-opacity="1"/></g><rect x="112.576" y="24.3267" width="3" height="6.99968" id="rect3322-6-0-3-9-3-7-2-9-8" stroke="#A4A69A" stroke-width="0.2" stroke-dasharray="" stroke-opacity="1" fill="#010101" fill-opacity="1"/><g id="g4302" stroke="#A4A69A" stroke-width="0.2" stroke-dasharray="" stroke-opacity="1" fill="#010101" fill-opacity="1"><rect x="115.576" y="24.3267" width="1.5" height="2" id="rect3296-5-0-2-8-8-1-9-3-7-5-2-1-1" stroke="#A4A69A" stroke-width="0.2" stroke-dasharray="" stroke-opacity="1" fill="#010101" fill-opacity="1"/><rect x="115.576" y="29.3267" width="1.5" height="2" id="rect3296-5-0-2-8-8-1-4-9-5-5-2-6-6-5" stroke="#A4A69A" stroke-width="0.2" stroke-dasharray="" stroke-opacity="1" fill="#010101" fill-opacity="1"/></g><rect x="120.076" y="26.3266" width="2" height="3" id="rect3296-5-0-2-8-2-7-2-6-4-5" stroke="#A4A69A" stroke-width="0.2" stroke-dasharray="" stroke-opacity="1" fill="#010101" fill-opacity="1"/><path d=" M 100.076 38.8266 L 100.076 41.8264 L 105.414 41.8264 L 103.076 48.826 L 103.076 48.8265 L 102.074 51.8263 L 120.076 51.8263 L 120.076 48.8265 L 106.239 48.8265 L 108.577 41.8264 L 109.578 38.8266 L 106.415 38.8266 Z" id="rect3296-5-01-5-0-6-0-4-1-7-3" stroke="#A4A69A" stroke-width="0.2" stroke-dasharray="" stroke-opacity="1" fill="#010101" fill-opacity="1"/></g></svg>