<svg version="1.1" width="84.0522" height="123.59" xmlns="http://www.w3.org/2000/svg" xmlns:xlink="http://www.w3.org/1999/xlink" id="svg16122" overflow="hidden"><defs id="defs16126"></defs><g id="g16128" transform="matrix(3.77953,0,0,3.77953,-835.241,-65.0978)"><rect x="229.13" y="17.3238" width="3" height="2" id="rect3296-5-0-2-8-1-5-3-0-6-5-1-2-5-4" stroke="#A4A69A" stroke-width="0.2" stroke-dasharray="" stroke-opacity="1" fill="#010101" fill-opacity="1"/><path d=" M 221.13 19.3233 L 221.13 22.3231 L 224.469 22.3231 C 225.158 20.5745 226.815 19.3978 228.693 19.3233 Z" id="rect2121-8-5-5-3-8-7-4" stroke="#A4A69A" stroke-width="0.2" stroke-dasharray="" stroke-opacity="1" fill="#010101" fill-opacity="1"/><path d=" M 228.834 19.3172 C 228.801 19.3175 228.768 19.3182 228.735 19.3193 C 226.841 19.3778 225.163 20.5592 224.469 22.3232 L 229.13 22.3232 L 233.13 22.3232 L 233.13 22.3237 L 234.88 22.3237 L 236.63 22.3237 L 237.13 22.3237 L 237.13 19.3234 L 236.63 19.3234 L 234.88 19.3234 L 233.13 19.3234 L 229.13 19.3234 C 229.064 19.32 228.999 19.3179 228.933 19.3172 C 228.9 19.3169 228.867 19.3169 228.834 19.3172 Z" id="rect2121-4-8-1-8-6" stroke="#A4A69A" stroke-width="0.2" stroke-dasharray="" stroke-opacity="1" fill="#010101" fill-opacity="1"/><rect x="237.13" y="19.3238" width="1" height="3" id="rect10209-6-6-5" stroke="#A4A69A" stroke-width="0.2" stroke-dasharray="" stroke-opacity="1" fill="#010101" fill-opacity="1"/><path d=" M 224.469 22.3231 L 221.13 32.3236 L 224.293 32.3236 L 227.157 23.7448 C 227.441 22.8959 228.235 22.3234 229.13 22.3231 Z" id="rect3322-2-2-2-0-7-7-7-7-8-5-0-8-9-0-1" stroke="#A4A69A" stroke-width="0.2" stroke-dasharray="" stroke-opacity="1" fill="#010101" fill-opacity="1"/><rect x="233.63" y="22.3238" width="2.99982" height="7.00009" id="rect1355-2-9-0-9-7" stroke="#A4A69A" stroke-width="0.2" stroke-dasharray="" stroke-opacity="1" fill="#010101" fill-opacity="1"/><rect x="238.13" y="19.3238" width="3" height="13" id="rect3322-6-2-3-8-3-6-6-6" stroke="#A4A69A" stroke-width="0.2" stroke-dasharray="" stroke-opacity="1" fill="#010101" fill-opacity="1"/><rect x="241.13" y="24.3238" width="2" height="3" id="rect3296-5-0-2-8-1-8-3-9-8-0-2-0" stroke="#A4A69A" stroke-width="0.2" stroke-dasharray="" stroke-opacity="1" fill="#010101" fill-opacity="1"/><path d=" M 225.294 29.3238 L 224.293 32.3236 L 229.961 32.3236 L 232.63 32.3236 L 235.63 32.3236 L 236.629 32.3236 L 236.629 29.3238 L 235.63 29.3238 L 232.63 29.3238 L 229.961 29.3238 Z" id="rect3296-5-0-8-0-0-3-7-1-5" stroke="#A4A69A" stroke-width="0.2" stroke-dasharray="" stroke-opacity="1" fill="#010101" fill-opacity="1"/><rect x="236.63" y="29.3239" width="1.50009" height="2.99991" id="rect15919" stroke="#A4A69A" stroke-width="0.2" stroke-dasharray="" stroke-opacity="1" fill="#010101" fill-opacity="1"/><path d=" M 221.13 32.5738 L 221.13 35.5736 L 225.63 35.5736 L 225.63 36.5736 L 228.63 36.5736 L 228.63 35.5736 L 233.63 35.5736 L 233.63 36.5736 L 236.63 36.5736 L 236.63 35.5736 L 241.13 35.5736 L 241.13 32.5738 Z" id="rect1427" stroke="#A4A69A" stroke-width="0.2" stroke-dasharray="" stroke-opacity="1" fill="#010101" fill-opacity="1"/><path d=" M 221.129 36.8238 L 221.129 39.8236 L 226.467 39.8236 L 229.63 39.8236 L 230.631 36.8238 L 227.469 36.8238 Z" id="rect3296-5-01-5-0-6-0-4-1-7" stroke="#A4A69A" stroke-width="0.2" stroke-dasharray="" stroke-opacity="1" fill="#010101" fill-opacity="1"/><path d=" M 230.631 36.8238 L 229.63 39.8236 L 241.13 39.8236 L 241.13 36.8238 Z" id="rect3296-5-01-5-9-8-5-7-3" stroke="#A4A69A" stroke-width="0.2" stroke-dasharray="" stroke-opacity="1" fill="#010101" fill-opacity="1"/><path d=" M 221.129 39.8236 L 221.129 49.8235 L 223.128 49.8235 L 224.13 46.8232 L 224.13 39.8236 Z" id="rect3320-0-4-1-2-4-5-4" stroke="#A4A69A" stroke-width="0.2" stroke-dasharray="" stroke-opacity="1" fill="#010101" fill-opacity="1"/><path d=" M 226.467 39.8236 L 224.13 46.8232 L 224.13 46.8237 L 227.292 46.8237 L 229.63 39.8236 Z" id="rect3322-2-2-7-2-7-03-6-5" stroke="#A4A69A" stroke-width="0.2" stroke-dasharray="" stroke-opacity="1" fill="#010101" fill-opacity="1"/><rect x="229.63" y="39.8238" width="3" height="6.99999" id="rect3322-6-0-8-9-1-0-2-8-7" stroke="#A4A69A" stroke-width="0.2" stroke-dasharray="" stroke-opacity="1" fill="#010101" fill-opacity="1"/><path d=" M 238.129 39.8236 L 232.63 46.8237 L 236.445 46.8237 L 238.129 44.6797 Z" id="rect3322-2-7-4-8-1-1-5-9" stroke="#A4A69A" stroke-width="0.2" stroke-dasharray="" stroke-opacity="1" fill="#010101" fill-opacity="1"/><rect x="238.13" y="39.8238" width="3" height="7" id="rect3322-2-4-2-2-6-9-2" stroke="#A4A69A" stroke-width="0.2" stroke-dasharray="" stroke-opacity="1" fill="#010101" fill-opacity="1"/><path d=" M 224.13 46.8237 L 223.128 49.8235 L 241.13 49.8235 L 241.13 46.8237 Z" id="rect3296-4-3-4-6-5-1-0" stroke="#A4A69A" stroke-width="0.2" stroke-dasharray="" stroke-opacity="1" fill="#010101" fill-opacity="1"/></g></svg>