<svg version="1.1" width="84.0529" height="123.59" xmlns="http://www.w3.org/2000/svg" xmlns:xlink="http://www.w3.org/1999/xlink" id="svg12485" overflow="hidden"><defs id="defs12489"></defs><g id="g12491" transform="matrix(3.77953,0,0,3.77953,-623.218,-78.4704)"><path d=" M 172.736 22.8555 C 172.703 22.8558 172.67 22.8564 172.638 22.8576 C 170.743 22.9161 169.065 24.0975 168.372 25.8615 L 165.032 35.8619 L 168.195 35.8619 L 171.059 27.2831 C 171.343 26.4342 172.137 25.8618 173.032 25.8615 L 177.033 25.8615 L 177.033 25.862 L 178.782 25.862 L 180.532 25.862 L 181.032 25.862 L 181.032 22.8617 L 180.532 22.8617 L 178.782 22.8617 L 177.033 22.8617 L 173.032 22.8617 C 172.967 22.8583 172.901 22.8562 172.835 22.8555 C 172.802 22.8551 172.769 22.8551 172.736 22.8555 Z" id="rect2121-4-8-1-8-6-5-3" stroke="#A4A69A" stroke-width="0.2" stroke-dasharray="" stroke-opacity="1" fill="#010101" fill-opacity="1"/><g id="g4313" stroke="#A4A69A" stroke-opacity="1"><rect x="181.032" y="22.862" width="1" height="3" id="rect10209-6-6-5-7-2" stroke="#A4A69A" stroke-width="0.2" stroke-dasharray="" stroke-opacity="1" fill="#010101" fill-opacity="1"/><rect x="180.532" y="32.8621" width="1.50009" height="2.99991" id="rect15919-1-5" stroke="#A4A69A" stroke-width="0.2" stroke-dasharray="" stroke-opacity="1" fill="#010101" fill-opacity="1"/></g><rect x="177.532" y="25.862" width="2.99982" height="7.00009" id="rect1355-2-9-0-9-7-4-8" stroke="#A4A69A" stroke-width="0.2" stroke-dasharray="" stroke-opacity="1" fill="#010101" fill-opacity="1"/><rect x="182.032" y="22.862" width="3" height="13" id="rect3322-6-2-3-8-3-6-6-6-0-7" stroke="#A4A69A" stroke-width="0.2" stroke-dasharray="" stroke-opacity="1" fill="#010101" fill-opacity="1"/><rect x="185.032" y="27.862" width="2" height="3" id="rect3296-5-0-2-8-1-8-3-9-8-0-2-0-4-9" stroke="#A4A69A" stroke-width="0.2" stroke-dasharray="" stroke-opacity="1" fill="#010101" fill-opacity="1"/><path d=" M 169.196 32.862 L 168.195 35.8618 L 173.863 35.8618 L 176.532 35.8618 L 179.532 35.8618 L 180.532 35.8618 L 180.532 32.862 L 179.532 32.862 L 176.532 32.862 L 173.863 32.862 Z" id="rect3296-5-0-8-0-0-3-7-1-5-8-6" stroke="#A4A69A" stroke-width="0.2" stroke-dasharray="" stroke-opacity="1" fill="#010101" fill-opacity="1"/><path d=" M 165.032 40.362 L 165.032 43.3618 L 170.369 43.3618 L 173.532 43.3618 L 174.533 40.362 L 171.371 40.362 Z" id="rect3296-5-01-5-0-6-0-4-1-7-8-2" stroke="#A4A69A" stroke-width="0.2" stroke-dasharray="" stroke-opacity="1" fill="#010101" fill-opacity="1"/><g id="g10161" stroke="#A4A69A" stroke-opacity="1"><path d=" M 174.534 40.3619 L 173.532 43.3617 L 182.032 43.3617 L 182.032 50.3618 L 185.032 50.3618 L 185.032 43.3617 L 185.032 41.862 L 185.032 40.3619 Z" id="rect3296-5-01-5-9-8-5-7-3-5-9" stroke="#A4A69A" stroke-width="0.2" stroke-dasharray="" stroke-opacity="1" fill="#010101" fill-opacity="1"/><path d=" M 165.032 43.3618 L 165.032 53.3617 L 167.03 53.3617 L 168.032 50.3614 L 168.032 43.3618 Z" id="rect3320-0-4-1-2-4-5-4-2-5" stroke="#A4A69A" stroke-width="0.2" stroke-dasharray="" stroke-opacity="1" fill="#010101" fill-opacity="1"/></g><path d=" M 170.369 43.3618 L 168.032 50.3614 L 168.032 50.3619 L 171.195 50.3619 L 173.532 43.3618 Z" id="rect3322-2-2-7-2-7-03-6-5-1-5" stroke="#A4A69A" stroke-width="0.2" stroke-dasharray="" stroke-opacity="1" fill="#010101" fill-opacity="1"/><rect x="173.532" y="43.362" width="3" height="6.99999" id="rect3322-6-0-8-9-1-0-2-8-7-8-5" stroke="#A4A69A" stroke-width="0.2" stroke-dasharray="" stroke-opacity="1" fill="#010101" fill-opacity="1"/><path d=" M 168.032 50.3619 L 167.03 53.3617 L 185.032 53.3617 L 185.032 50.3619 Z" id="rect3296-4-3-4-6-5-1-0-9-0" stroke="#A4A69A" stroke-width="0.2" stroke-dasharray="" stroke-opacity="1" fill="#010101" fill-opacity="1"/></g></svg>