<svg version="1.1" width="84.0529" height="123.59" xmlns="http://www.w3.org/2000/svg" xmlns:xlink="http://www.w3.org/1999/xlink" id="svg13255" overflow="hidden"><defs id="defs13259"></defs><g id="g13261" transform="matrix(3.77953,0,0,3.77953,-740.518,-78.4704)"><path d=" M 203.772 22.8555 C 203.739 22.8558 203.706 22.8564 203.673 22.8576 C 201.779 22.9161 200.101 24.0975 199.407 25.8615 L 199.407 25.8615 L 196.068 35.8619 L 199.231 35.8619 L 202.095 27.2831 C 202.378 26.4342 203.173 25.8618 204.068 25.8615 L 204.068 25.8615 L 208.068 25.8615 L 208.068 25.862 L 209.818 25.862 L 211.568 25.862 L 212.068 25.862 L 212.068 22.8617 L 211.568 22.8617 L 209.818 22.8617 L 208.068 22.8617 L 204.068 22.8617 C 204.002 22.8583 203.937 22.8562 203.871 22.8555 C 203.838 22.8551 203.805 22.8551 203.772 22.8555 Z" id="rect2121-4-8-1-8-6-5" stroke="#A4A69A" stroke-width="0.2" stroke-dasharray="" stroke-opacity="1" fill="#010101" fill-opacity="1"/><g id="g4309" stroke="#A4A69A" stroke-opacity="1"><rect x="212.068" y="22.862" width="1" height="3" id="rect10209-6-6-5-7" stroke="#A4A69A" stroke-width="0.2" stroke-dasharray="" stroke-opacity="1" fill="#010101" fill-opacity="1"/><rect x="211.568" y="32.8621" width="1.50009" height="2.99991" id="rect15919-1" stroke="#A4A69A" stroke-width="0.2" stroke-dasharray="" stroke-opacity="1" fill="#010101" fill-opacity="1"/></g><rect x="208.568" y="25.862" width="2.99982" height="7.00009" id="rect1355-2-9-0-9-7-4" stroke="#A4A69A" stroke-width="0.2" stroke-dasharray="" stroke-opacity="1" fill="#010101" fill-opacity="1"/><rect x="213.068" y="22.862" width="3" height="13" id="rect3322-6-2-3-8-3-6-6-6-0" stroke="#A4A69A" stroke-width="0.2" stroke-dasharray="" stroke-opacity="1" fill="#010101" fill-opacity="1"/><rect x="216.068" y="27.862" width="2" height="3" id="rect3296-5-0-2-8-1-8-3-9-8-0-2-0-4" stroke="#A4A69A" stroke-width="0.2" stroke-dasharray="" stroke-opacity="1" fill="#010101" fill-opacity="1"/><path d=" M 200.232 32.862 L 199.231 35.8618 L 204.899 35.8618 L 207.568 35.8618 L 210.568 35.8618 L 211.568 35.8618 L 211.568 32.862 L 210.568 32.862 L 207.568 32.862 L 204.899 32.862 Z" id="rect3296-5-0-8-0-0-3-7-1-5-8" stroke="#A4A69A" stroke-width="0.2" stroke-dasharray="" stroke-opacity="1" fill="#010101" fill-opacity="1"/><path d=" M 196.068 40.362 L 196.068 43.3618 L 201.405 43.3618 L 204.568 43.3618 L 205.569 40.362 L 202.407 40.362 Z" id="rect3296-5-01-5-0-6-0-4-1-7-8" stroke="#A4A69A" stroke-width="0.2" stroke-dasharray="" stroke-opacity="1" fill="#010101" fill-opacity="1"/><path d=" M 205.569 40.362 L 204.568 43.3618 L 216.068 43.3618 L 216.068 40.362 Z" id="rect3296-5-01-5-9-8-5-7-3-5" stroke="#A4A69A" stroke-width="0.2" stroke-dasharray="" stroke-opacity="1" fill="#010101" fill-opacity="1"/><g id="g10891"><rect x="213.068" y="43.362" width="3" height="7" id="rect3322-2-4-2-2-6-9-2-3" stroke="#A4A69A" stroke-width="0.2" stroke-dasharray="" stroke-opacity="1" fill="#010101" fill-opacity="1"/><path d=" M 196.068 43.3618 L 196.068 53.3617 L 198.066 53.3617 L 199.068 50.3614 L 199.068 43.3618 Z" id="rect3320-0-4-1-2-4-5-4-2" stroke="#A4A69A" stroke-width="0.2" stroke-dasharray="" stroke-opacity="1" fill="#010101" fill-opacity="1"/></g><path d=" M 201.405 43.3618 L 199.068 50.3614 L 199.068 50.3619 L 202.23 50.3619 L 204.568 43.3618 Z" id="rect3322-2-2-7-2-7-03-6-5-1" stroke="#A4A69A" stroke-width="0.2" stroke-dasharray="" stroke-opacity="1" fill="#010101" fill-opacity="1"/><rect x="204.568" y="43.362" width="3" height="6.99999" id="rect3322-6-0-8-9-1-0-2-8-7-8" stroke="#A4A69A" stroke-width="0.2" stroke-dasharray="" stroke-opacity="1" fill="#010101" fill-opacity="1"/><path d=" M 213.068 43.3618 L 207.568 50.3619 L 211.383 50.3619 L 213.068 48.2179 Z" id="rect3322-2-7-4-8-1-1-5-9-8" stroke="#A4A69A" stroke-width="0.2" stroke-dasharray="" stroke-opacity="1" fill="#010101" fill-opacity="1"/><path d=" M 199.068 50.3619 L 198.066 53.3617 L 216.068 53.3617 L 216.068 50.3619 Z" id="rect3296-4-3-4-6-5-1-0-9" stroke="#A4A69A" stroke-width="0.2" stroke-dasharray="" stroke-opacity="1" fill="#010101" fill-opacity="1"/></g></svg>