<svg version="1.1" width="76.4947" height="123.617" xmlns="http://www.w3.org/2000/svg" xmlns:xlink="http://www.w3.org/1999/xlink" id="svg19441" overflow="hidden"><defs id="defs19445"></defs><g id="g19447" transform="matrix(3.77953,0,0,3.77953,-730.95,151.662)"><path d=" M 201.224 -38.0271 C 199.299 -38.0014 197.58 -36.8134 196.875 -35.0211 L 193.536 -25.0207 L 196.699 -25.0207 L 196.701 -25.0269 L 205.536 -25.0269 L 205.536 -25.0274 L 210.536 -25.0274 L 213.536 -25.0274 L 213.536 -38.0271 L 210.536 -38.0271 L 210.536 -34.0274 L 199.763 -34.0274 C 200.141 -34.6445 200.812 -35.0209 201.536 -35.0211 L 201.536 -35.0278 L 201.536 -38.0209 C 201.432 -38.0264 201.328 -38.0285 201.224 -38.0271 Z M 198.705 -31.0276 L 210.536 -31.0276 L 210.536 -28.0272 L 205.536 -28.0272 L 197.703 -28.0272 Z M 193.536 -24.7701 L 193.536 -21.7697 L 202.036 -21.7697 L 202.036 -20.7698 L 205.036 -20.7698 L 205.036 -21.7697 L 213.536 -21.7697 L 213.536 -24.7701 Z M 193.536 -17.5204 L 193.536 -7.52047 L 196.536 -7.52047 L 213.536 -7.52047 L 213.536 -10.5203 L 196.536 -10.5203 L 196.536 -17.5204 Z" id="rect3296-4-8-8-4-3-4-9" stroke="#A4A69A" stroke-width="0.2" stroke-dasharray="" stroke-opacity="1" fill="#000000" fill-opacity="1"/><rect x="210.536" y="-40.0273" width="3" height="2" id="rect3296-5-0-2-8-1-5-3-0-6-5-1-8-5-1-8" stroke="#A4A69A" stroke-width="0.2" stroke-dasharray="" stroke-opacity="1" fill="#010101" fill-opacity="1"/></g></svg>