<svg version="1.1" width="84.056" height="123.592" xmlns="http://www.w3.org/2000/svg" xmlns:xlink="http://www.w3.org/1999/xlink" id="svg22773" overflow="hidden"><defs id="defs22777"></defs><g id="g22779" transform="matrix(3.77953,0,0,3.77953,-36.6466,-77.9042)"><path d=" M 9.83491 22.7122 L 9.83491 25.712 L 13.1749 25.712 C 13.8639 23.9634 15.5199 22.7867 17.3979 22.7122 Z" id="rect2121-8-5-8-9-3" stroke="#A4A69A" stroke-width="0.2" stroke-dasharray="" stroke-opacity="1" fill="#010101" fill-opacity="1"/><path d=" M 13.1749 25.712 L 9.83491 35.7125 L 12.9989 35.7125 L 15.8629 27.1333 C 16.1459 26.2845 16.9409 25.712 17.8359 25.712 L 21.8359 25.712 L 21.8359 22.7122 L 17.8349 22.7122 C 15.7979 22.6054 13.9209 23.8136 13.1749 25.712 Z" id="rect3322-2-2-2-0-7-7-7-7-8-9-2-0-2" stroke="#A4A69A" stroke-width="0.2" stroke-dasharray="" stroke-opacity="1" fill="#010101" fill-opacity="1"/><g id="g22670" stroke="#A4A69A" stroke-width="0.2" stroke-dasharray="" stroke-opacity="1"><rect x="21.8352" y="22.7123" width="3.99995" height="3.00002" id="rect12776-2-7-9-6-8-6" stroke="#A4A69A" stroke-width="0.2" stroke-dasharray="" stroke-opacity="1" fill="#010101" fill-opacity="1"/><rect x="22.3357" y="32.7123" width="3" height="2.99989" id="rect22666" stroke="#A4A69A" stroke-width="0.2" stroke-dasharray="" stroke-opacity="1" fill="#010101" fill-opacity="1"/></g><g id="g19522" stroke="#A4A69A" stroke-width="0.2" stroke-dasharray="" stroke-opacity="1" fill="#010101" fill-opacity="1"><rect x="25.8357" y="22.712" width="0.999985" height="3.00002" id="rect61897-1-7-9" stroke="#A4A69A" stroke-width="0.2" stroke-dasharray="" stroke-opacity="1" fill="#010101" fill-opacity="1"/><rect x="25.3357" y="32.7123" width="1.50022" height="2.99989" id="rect19460" stroke="#A4A69A" stroke-width="0.2" stroke-dasharray="" stroke-opacity="1" fill="#010101" fill-opacity="1"/></g><rect x="17.8359" y="25.712" width="3" height="7.00021" id="rect9865-5-9-0-3-8-7" stroke="#A4A69A" stroke-width="0.2" stroke-dasharray="" stroke-opacity="1" fill="#010101" fill-opacity="1"/><rect x="22.3357" y="25.7121" width="3" height="7.00021" id="rect12778-8-6-5-8-0-6" stroke="#A4A69A" stroke-width="0.2" stroke-dasharray="" stroke-opacity="1" fill="#010101" fill-opacity="1"/><rect x="25.3357" y="27.7122" width="1.5" height="3" id="rect3296-5-0-2-8-8-2-7-0-2-5-5-9-9" stroke="#A4A69A" stroke-width="0.2" stroke-dasharray="" stroke-opacity="1" fill="#010101" fill-opacity="1"/><rect x="26.8359" y="22.7122" width="3" height="13" id="rect3322-6-0-1-0-3-2-9-9-8-0" stroke="#A4A69A" stroke-width="0.2" stroke-dasharray="" stroke-opacity="1" fill="#010101" fill-opacity="1"/><rect x="29.8359" y="27.7122" width="2" height="3" id="rect3296-5-0-2-8-1-6-2-4-5-0-8-1-4-4" stroke="#A4A69A" stroke-width="0.2" stroke-dasharray="" stroke-opacity="1" fill="#010101" fill-opacity="1"/><path d=" M 13.9997 32.7122 L 12.9977 35.7125 L 21.2173 35.7125 L 21.8359 35.7125 L 22.3356 35.7125 L 22.3356 32.7122 L 21.8359 32.7122 L 21.2173 32.7122 Z" id="rect3296-5-0-2-7-5-8-9-7-4-9-0-3" stroke="#A4A69A" stroke-width="0.2" stroke-dasharray="" stroke-opacity="1" fill="#010101" fill-opacity="1"/><path d=" M 18.3359 43.2122 L 18.3359 50.2123 L 9.83591 50.2123 L 9.83591 53.2126 L 29.8359 53.2126 L 29.8359 50.2123 L 21.3359 50.2123 L 21.3359 43.2122 Z" id="rect3320-1-5-6-9-6-5-1-4-9-7-4-6" stroke="#A4A69A" stroke-width="0.2" stroke-dasharray="" stroke-opacity="1" fill="#010101" fill-opacity="1"/></g></svg>