<svg version="1.1" width="80.2735" height="121.701" xmlns="http://www.w3.org/2000/svg" xmlns:xlink="http://www.w3.org/1999/xlink" id="svg744" overflow="hidden"><defs id="defs748"></defs><g id="g750" transform="matrix(3.77953,0,0,3.77953,-36.9806,-478.826)"><rect x="18.4235" y="126.789" width="3" height="2" id="rect3296-5-0-2-8-1-5-3-0-6-4" stroke="#A4A69A" stroke-width="0.2" stroke-dasharray="" stroke-opacity="1" fill="#010101" fill-opacity="1"/><path d=" M 9.92327 128.789 L 9.92327 131.789 L 13.2626 131.789 L 14.2641 128.789 Z" id="rect3296-5-7-4-9-4-0" stroke="#A4A69A" stroke-width="0.2" stroke-dasharray="" stroke-opacity="1" fill="#010101" fill-opacity="1"/><path d=" M 14.2641 128.789 L 13.2626 131.789 L 21.9236 131.789 L 21.9236 128.789 Z" id="rect3296-5-7-4-9-4" stroke="#A4A69A" stroke-width="0.2" stroke-dasharray="" stroke-opacity="1" fill="#010101" fill-opacity="1"/><rect x="21.9236" y="128.789" width="4.99993" height="3.00002" id="rect12776-9-3-6" stroke="#A4A69A" stroke-width="0.2" stroke-dasharray="" stroke-opacity="1" fill="#010101" fill-opacity="1"/><path d=" M 13.2626 131.789 L 9.92327 141.789 L 13.0864 141.789 L 16.4252 131.789 Z" id="rect3322-2-2-2-0-7-7" stroke="#A4A69A" stroke-width="0.2" stroke-dasharray="" stroke-opacity="1" fill="#010101" fill-opacity="1"/><rect x="18.9235" y="131.789" width="3" height="7.00021" id="rect9865" stroke="#A4A69A" stroke-width="0.2" stroke-dasharray="" stroke-opacity="1" fill="#010101" fill-opacity="1"/><rect x="21.9235" y="133.789" width="0.999985" height="3" id="rect3296-5-0-2-8-9-0" stroke="#A4A69A" stroke-width="0.2" stroke-dasharray="" stroke-opacity="1" fill="#010101" fill-opacity="1"/><rect x="22.9235" y="131.789" width="3" height="7.00021" id="rect12778" stroke="#A4A69A" stroke-width="0.2" stroke-dasharray="" stroke-opacity="1" fill="#010101" fill-opacity="1"/><g id="g14967" stroke="#A4A69A" stroke-width="0.2" stroke-dasharray="" stroke-opacity="1" fill="#010101" fill-opacity="1" transform="matrix(1,0,0,1,-74.8741,100.637)"><rect x="100.798" y="31.1523" width="0.999985" height="2" id="rect3296-5-0-2-8-8-1-9-3" stroke="#A4A69A" stroke-width="0.2" stroke-dasharray="" stroke-opacity="1" fill="#010101" fill-opacity="1"/><rect x="100.798" y="36.1523" width="0.999985" height="2" id="rect3296-5-0-2-8-8-1-4-9-5" stroke="#A4A69A" stroke-width="0.2" stroke-dasharray="" stroke-opacity="1" fill="#010101" fill-opacity="1"/></g><rect x="25.9235" y="133.789" width="0.999985" height="3" id="rect3296-5-0-2-8-8-2-7" stroke="#A4A69A" stroke-width="0.2" stroke-dasharray="" stroke-opacity="1" fill="#010101" fill-opacity="1"/><rect x="26.9235" y="128.789" width="3" height="13" id="rect3322-6-0-1-0" stroke="#A4A69A" stroke-width="0.2" stroke-dasharray="" stroke-opacity="1" fill="#010101" fill-opacity="1"/><rect x="29.9235" y="133.789" width="0.999985" height="3" id="rect3296-5-0-2-8-1-6-2-4" stroke="#A4A69A" stroke-width="0.2" stroke-dasharray="" stroke-opacity="1" fill="#010101" fill-opacity="1"/><path d=" M 14.0879 138.789 L 13.0864 141.789 L 21.9236 141.789 L 21.9236 138.789 Z" id="rect3296-5-0-2-7-5-8" stroke="#A4A69A" stroke-width="0.2" stroke-dasharray="" stroke-opacity="1" fill="#010101" fill-opacity="1"/><rect x="21.9235" y="138.789" width="4.99997" height="3" id="rect14963" stroke="#A4A69A" stroke-width="0.2" stroke-dasharray="" stroke-opacity="1" fill="#010101" fill-opacity="1"/><path d=" M 18.3956 142.039 L 18.3956 142.539 L 9.92327 142.539 L 9.92327 145.539 L 29.9236 145.539 L 29.9236 142.539 L 21.3954 142.539 L 21.3954 142.039 Z" id="rect3296-5-6-7-8-7" stroke="#A4A69A" stroke-width="0.2" stroke-dasharray="" stroke-opacity="1" fill="#010101" fill-opacity="1"/><rect x="9.92352" y="145.789" width="8.5" height="3" id="rect34096" stroke="#A4A69A" stroke-width="0.2" stroke-dasharray="" stroke-opacity="1" fill="#010101" fill-opacity="1"/><path d=" M 18.4235 145.789 L 18.4235 148.789 L 18.4235 150.945 L 19.9123 148.789 L 29.9236 148.789 L 29.9236 145.789 L 21.983 145.789 Z" id="rect3296-5-01-7-5" stroke="#A4A69A" stroke-width="0.2" stroke-dasharray="" stroke-opacity="1" fill="#010101" fill-opacity="1"/><rect x="9.92352" y="148.789" width="3" height="10" id="rect3320-0-26-6" stroke="#A4A69A" stroke-width="0.2" stroke-dasharray="" stroke-opacity="1" fill="#010101" fill-opacity="1"/><path d=" M 16.2671 148.789 L 12.9236 153.633 L 12.9236 155.789 L 15.0801 155.789 L 18.4235 150.945 L 18.4235 148.789 Z" id="rect3296-4-4-0-3-9" stroke="#A4A69A" stroke-width="0.2" stroke-dasharray="" stroke-opacity="1" fill="#010101" fill-opacity="1"/><path d=" M 19.9123 148.789 L 18.4235 150.945 L 18.4235 155.789 L 21.4233 155.789 L 21.4233 148.789 Z" id="rect3322-6-0-8-7-5-2" stroke="#A4A69A" stroke-width="0.2" stroke-dasharray="" stroke-opacity="1" fill="#010101" fill-opacity="1"/><path d=" M 26.9233 148.789 L 21.4233 155.789 L 25.2386 155.789 L 26.9233 153.645 Z" id="rect3322-2-7-9-0" stroke="#A4A69A" stroke-width="0.2" stroke-dasharray="" stroke-opacity="1" fill="#010101" fill-opacity="1"/><rect x="26.9233" y="148.789" width="3.00026" height="7.0002" id="rect39974" stroke="#A4A69A" stroke-width="0.2" stroke-dasharray="" stroke-opacity="1" fill="#010101" fill-opacity="1"/><rect x="12.9235" y="155.789" width="17" height="3" id="rect3296-4-8-8" stroke="#A4A69A" stroke-width="0.2" stroke-dasharray="" stroke-opacity="1" fill="#010101" fill-opacity="1"/></g></svg>