<svg version="1.1" width="80.2711" height="121.7" xmlns="http://www.w3.org/2000/svg" xmlns:xlink="http://www.w3.org/1999/xlink" id="svg694" overflow="hidden"><defs id="defs698"></defs><g id="g700" transform="matrix(3.77953,0,0,3.77953,-263.864,-26.3479)"><rect x="77.9526" y="7.07122" width="3" height="2" id="rect3296-5-0-2-8-1-5-3-0-6-8" stroke="#A4A69A" stroke-width="0.2" stroke-dasharray="" stroke-opacity="1" fill="#010101" fill-opacity="1"/><path d=" M 69.9523 9.07127 L 69.9523 12.0711 L 73.2916 12.0711 L 74.2931 9.07127 Z" id="rect3296-5-7-2-09-2" stroke="#A4A69A" stroke-width="0.2" stroke-dasharray="" stroke-opacity="1" fill="#010101" fill-opacity="1"/><path d=" M 74.2936 9.07106 L 73.2921 12.0709 L 76.4547 12.0709 L 78.9537 12.0709 L 81.4528 12.0709 L 84.4526 12.0709 L 84.4526 9.07106 L 77.4562 9.07106 Z" id="rect3296-5-7-2-7-5-4" stroke="#A4A69A" stroke-width="0.2" stroke-dasharray="" stroke-opacity="1" fill="#010101" fill-opacity="1"/><path d=" M 84.438 9.05668 L 84.438 12.0857 L 86.9669 12.0857 L 86.9669 9.05668 Z" id="rect3296-5-7-2-0-4-8" stroke="#A4A69A" stroke-width="0.170827" stroke-dasharray="" stroke-opacity="1" fill="#010101" fill-opacity="1"/><path d=" M 73.2921 12.0709 L 69.9527 22.0708 L 73.1159 22.0708 L 76.4547 12.0709 Z" id="rect3296-5-7-2-7-5-6-44" stroke="#A4A69A" stroke-width="0.2" stroke-dasharray="" stroke-opacity="1" fill="#010101" fill-opacity="1"/><rect x="81.4526" y="12.0711" width="2.99982" height="7.00009" id="rect1355-3" stroke="#A4A69A" stroke-width="0.2" stroke-dasharray="" stroke-opacity="1" fill="#010101" fill-opacity="1"/><rect x="86.9524" y="9.0712" width="3" height="13" id="rect3322-6-2-3-4" stroke="#A4A69A" stroke-width="0.2" stroke-dasharray="" stroke-opacity="1" fill="#010101" fill-opacity="1"/><rect x="89.9523" y="14.0712" width="0.999985" height="3" id="rect3296-5-0-2-8-1-8-3-37" stroke="#A4A69A" stroke-width="0.2" stroke-dasharray="" stroke-opacity="1" fill="#010101" fill-opacity="1"/><path d=" M 74.1171 19.0712 L 73.1157 22.071 L 81.4526 22.071 L 84.4524 22.071 L 84.4524 19.0712 L 81.4526 19.0712 Z" id="rect3296-5-0-8-0-44" stroke="#A4A69A" stroke-width="0.2" stroke-dasharray="" stroke-opacity="1" fill="#010101" fill-opacity="1"/><rect x="84.4524" y="19.0712" width="2.50017" height="3" id="rect3296-5-0-2-8-1-0-5-2-5" stroke="#A4A69A" stroke-width="0.2" stroke-dasharray="" stroke-opacity="1" fill="#010101" fill-opacity="1"/><path d=" M 69.9523 22.3211 L 69.9523 25.3209 L 74.4522 25.3209 L 74.4522 25.8212 L 77.4521 25.8212 L 77.4521 25.3209 L 82.4523 25.3209 L 82.4523 25.8212 L 85.4521 25.8212 L 85.4521 25.3209 L 89.9521 25.3209 L 89.9521 22.3211 Z" id="rect3296-5-6-79-7-7" stroke="#A4A69A" stroke-width="0.2" stroke-dasharray="" stroke-opacity="1" fill="#010101" fill-opacity="1"/><path d=" M 69.9524 26.0713 L 69.9524 29.0711 L 75.29 29.0711 L 78.4526 29.0711 L 79.4541 26.0713 L 76.2915 26.0713 Z" id="rect3296-5-01-5-0" stroke="#A4A69A" stroke-width="0.2" stroke-dasharray="" stroke-opacity="1" fill="#010101" fill-opacity="1"/><path d=" M 79.4541 26.0713 L 78.4526 29.0711 L 89.9527 29.0711 L 89.9527 26.0713 Z" id="rect3296-5-01-5" stroke="#A4A69A" stroke-width="0.2" stroke-dasharray="" stroke-opacity="1" fill="#010101" fill-opacity="1"/><path d=" M 69.9524 29.0711 L 69.9524 39.071 L 71.9507 39.071 L 72.9527 36.0707 L 72.9527 29.0711 Z" id="rect3320-0-4" stroke="#A4A69A" stroke-width="0.2" stroke-dasharray="" stroke-opacity="1" fill="#010101" fill-opacity="1"/><path d=" M 75.29 29.0711 L 72.9527 36.0707 L 72.9527 36.0712 L 76.1153 36.0712 L 78.4526 29.0711 Z" id="rect3322-2-2-7" stroke="#A4A69A" stroke-width="0.2" stroke-dasharray="" stroke-opacity="1" fill="#010101" fill-opacity="1"/><rect x="78.4525" y="29.0713" width="3" height="6.99999" id="rect3322-6-0-8-9" stroke="#A4A69A" stroke-width="0.2" stroke-dasharray="" stroke-opacity="1" fill="#010101" fill-opacity="1"/><path d=" M 86.9524 29.0711 L 81.4524 36.0712 L 85.2677 36.0712 L 86.9524 33.9271 Z" id="rect3322-2-7-4" stroke="#A4A69A" stroke-width="0.2" stroke-dasharray="" stroke-opacity="1" fill="#010101" fill-opacity="1"/><rect x="86.9525" y="29.0712" width="3" height="7" id="rect3322-2-4" stroke="#A4A69A" stroke-width="0.2" stroke-dasharray="" stroke-opacity="1" fill="#010101" fill-opacity="1"/><path d=" M 72.9527 36.0712 L 71.9507 39.071 L 89.9527 39.071 L 89.9527 36.0712 Z" id="rect3296-4-3" stroke="#A4A69A" stroke-width="0.2" stroke-dasharray="" stroke-opacity="1" fill="#010101" fill-opacity="1"/></g></svg>