<svg version="1.1" width="80.2715" height="121.701" xmlns="http://www.w3.org/2000/svg" xmlns:xlink="http://www.w3.org/1999/xlink" id="svg30546" overflow="hidden"><defs id="defs30550"></defs><g id="g30552" transform="matrix(3.77953,0,0,3.77953,-684.909,-625.512)"><rect x="189.354" y="165.6" width="3" height="2" id="rect3296-5-0-2-8-1-5-3-0-6-2" stroke="#A4A69A" stroke-width="0.2" stroke-dasharray="" stroke-opacity="1" fill="#010101" fill-opacity="1"/><path d=" M 181.354 167.6 L 181.354 170.6 L 184.693 170.6 L 185.695 167.6 Z" id="rect3296-5-7-2-09-5" stroke="#A4A69A" stroke-width="0.2" stroke-dasharray="" stroke-opacity="1" fill="#010101" fill-opacity="1"/><path d=" M 185.695 167.6 L 184.694 170.6 L 187.856 170.6 L 190.355 170.6 L 192.854 170.6 L 195.854 170.6 L 195.854 167.6 L 188.858 167.6 Z" id="rect3296-5-7-2-7-5-8-0" stroke="#A4A69A" stroke-width="0.2" stroke-dasharray="" stroke-opacity="1" fill="#010101" fill-opacity="1"/><g id="g26419"><path d=" M 195.88 167.627 L 195.88 170.573 L 198.328 170.573 L 198.328 167.627 Z" id="rect3296-5-7-2-0-4-9-4" stroke="#A4A69A" stroke-width="0.253166" stroke-dasharray="" stroke-opacity="1" fill="#010101" fill-opacity="1"/><rect x="195.854" y="177.6" width="2.50017" height="3" id="rect3296-5-0-2-8-1-0-5-2-93" stroke="#A4A69A" stroke-width="0.2" stroke-dasharray="" stroke-opacity="1" fill="#010101" fill-opacity="1"/></g><path d=" M 184.694 170.6 L 181.354 180.6 L 184.518 180.6 L 187.856 170.6 Z" id="rect3296-5-7-2-7-5-6-1-6" stroke="#A4A69A" stroke-width="0.2" stroke-dasharray="" stroke-opacity="1" fill="#010101" fill-opacity="1"/><path d=" M 187.188 172.6 L 186.187 175.6 L 192.854 175.6 L 192.854 172.6 Z" id="rect14193" stroke="#A4A69A" stroke-width="0.212024" stroke-opacity="1" fill="#010101" fill-opacity="1"/><rect x="192.854" y="170.6" width="2.99982" height="7.00009" id="rect1355-5" stroke="#A4A69A" stroke-width="0.2" stroke-dasharray="" stroke-opacity="1" fill="#010101" fill-opacity="1"/><g id="g14967-4-4" stroke="#A4A69A" stroke-width="0.2" stroke-dasharray="" stroke-opacity="1" fill="#010101" fill-opacity="1" transform="matrix(1,0,0,1,96.5565,139.448)"><rect x="100.798" y="31.1523" width="0.999985" height="2" id="rect3296-5-0-2-8-8-1-9-3-9-8" stroke="#A4A69A" stroke-width="0.2" stroke-dasharray="" stroke-opacity="1" fill="#010101" fill-opacity="1"/><rect x="100.798" y="36.1523" width="0.999985" height="2" id="rect3296-5-0-2-8-8-1-4-9-5-53-8" stroke="#A4A69A" stroke-width="0.2" stroke-dasharray="" stroke-opacity="1" fill="#010101" fill-opacity="1"/></g><rect x="197.354" y="172.6" width="0.999985" height="3" id="rect3296-5-0-2-8-8-2-7-6-0" stroke="#A4A69A" stroke-width="0.2" stroke-dasharray="" stroke-opacity="1" fill="#010101" fill-opacity="1"/><rect x="198.354" y="167.6" width="3" height="13" id="rect3322-6-0-1-0-7-5" stroke="#A4A69A" stroke-width="0.2" stroke-dasharray="" stroke-opacity="1" fill="#010101" fill-opacity="1"/><rect x="201.354" y="172.6" width="0.999985" height="3" id="rect3296-5-0-2-8-1-6-2-4-58-0" stroke="#A4A69A" stroke-width="0.2" stroke-dasharray="" stroke-opacity="1" fill="#010101" fill-opacity="1"/><path d=" M 185.519 177.6 L 184.517 180.6 L 192.854 180.6 L 195.854 180.6 L 195.854 177.6 L 192.854 177.6 Z" id="rect3296-5-0-8-0-7" stroke="#A4A69A" stroke-width="0.2" stroke-dasharray="" stroke-opacity="1" fill="#010101" fill-opacity="1"/><rect x="181.354" y="184.6" width="19.9998" height="3" id="rect3296-5-8-8-6" stroke="#A4A69A" stroke-width="0.216929" stroke-dasharray="" stroke-opacity="1" fill="#010101" fill-opacity="1"/><rect x="181.354" y="187.6" width="2.99975" height="6.99998" id="rect20475" stroke="#A4A69A" stroke-width="0.2" stroke-opacity="1" fill="#010101" fill-opacity="1"/><g id="g20479" stroke="#A4A69A" stroke-opacity="1" fill="#010101" fill-opacity="1" transform="matrix(1,0,0,1,39.1566,24.7154)"><path d=" M 147.535 162.885 L 145.197 169.885 L 148.36 169.885 L 150.697 162.885 Z" id="rect19506" stroke="#A4A69A" stroke-width="0.2" stroke-opacity="1" fill="#010101" fill-opacity="1"/><path d=" M 156.86 162.885 L 159.197 169.885 L 156.035 169.885 L 153.697 162.885 Z" id="rect19506-1" stroke="#A4A69A" stroke-width="0.2" stroke-opacity="1" fill="#010101" fill-opacity="1"/></g><rect x="189.854" y="187.6" width="3" height="7" id="rect3320-1-5-6-9-6-5-1" stroke="#A4A69A" stroke-width="0.167332" stroke-dasharray="" stroke-opacity="1" fill="#010101" fill-opacity="1"/><rect x="198.354" y="187.6" width="2.99981" height="7.00009" id="rect20469" stroke="#A4A69A" stroke-width="0.2" stroke-opacity="1" fill="#010101" fill-opacity="1"/><rect x="181.354" y="194.6" width="19.9998" height="3.00008" id="rect20473" stroke="#A4A69A" stroke-width="0.2" stroke-opacity="1" fill="#010101" fill-opacity="1"/></g></svg>