<svg version="1.1" width="80.2731" height="121.262" xmlns="http://www.w3.org/2000/svg" xmlns:xlink="http://www.w3.org/1999/xlink" id="svg29782" overflow="hidden"><defs id="defs29786"></defs><g id="g29788" transform="matrix(3.77953,0,0,3.77953,-573.06,-625.891)"><path d=" M 151.761 167.6 L 151.761 170.6 L 155.1 170.6 L 156.102 167.6 Z" id="rect3296-5-7-4-9-4-0-1-6" stroke="#A4A69A" stroke-width="0.2" stroke-dasharray="" stroke-opacity="1" fill="#010101" fill-opacity="1"/><path d=" M 156.102 167.6 L 155.1 170.6 L 151.761 180.6 L 154.924 180.6 L 158.263 170.6 L 163.761 170.6 L 163.761 167.6 Z" id="rect3322-2-2-2-0-7-7-7-8" stroke="#A4A69A" stroke-width="0.2" stroke-dasharray="" stroke-opacity="1" fill="#010101" fill-opacity="1"/><g id="g20626" stroke="#A4A69A" stroke-opacity="1" fill="#010101" fill-opacity="1" transform="matrix(1,0,0,1,-0.880364,26.215)"><rect x="164.642" y="141.385" width="4.99993" height="3.00002" id="rect12776-2-7" stroke="#A4A69A" stroke-width="0.2" stroke-dasharray="" stroke-opacity="1" fill="#010101" fill-opacity="1"/><rect x="164.641" y="151.385" width="4.99997" height="3" id="rect14963-4-0" stroke="#A4A69A" stroke-width="0.2" stroke-dasharray="" stroke-opacity="1" fill="#010101" fill-opacity="1"/></g><rect x="160.761" y="170.6" width="3" height="7.00021" id="rect9865-5-9" stroke="#A4A69A" stroke-width="0.2" stroke-dasharray="" stroke-opacity="1" fill="#010101" fill-opacity="1"/><rect x="164.761" y="170.6" width="3" height="7.00021" id="rect12778-8-6" stroke="#A4A69A" stroke-width="0.2" stroke-dasharray="" stroke-opacity="1" fill="#010101" fill-opacity="1"/><rect x="167.761" y="172.6" width="0.999985" height="3" id="rect3296-5-0-2-8-8-2-7-0-2" stroke="#A4A69A" stroke-width="0.2" stroke-dasharray="" stroke-opacity="1" fill="#010101" fill-opacity="1"/><rect x="168.761" y="167.6" width="3" height="13" id="rect3322-6-0-1-0-3-2" stroke="#A4A69A" stroke-width="0.2" stroke-dasharray="" stroke-opacity="1" fill="#010101" fill-opacity="1"/><rect x="171.761" y="172.6" width="0.999985" height="3" id="rect3296-5-0-2-8-1-6-2-4-5-0" stroke="#A4A69A" stroke-width="0.2" stroke-dasharray="" stroke-opacity="1" fill="#010101" fill-opacity="1"/><path d=" M 155.925 177.6 L 154.924 180.6 L 163.761 180.6 L 163.761 177.6 Z" id="rect3296-5-0-2-7-5-8-9-7" stroke="#A4A69A" stroke-width="0.2" stroke-dasharray="" stroke-opacity="1" fill="#010101" fill-opacity="1"/><path d=" M 160.261 187.6 L 160.261 194.6 L 151.761 194.6 L 151.761 197.6 L 171.761 197.6 L 171.761 194.6 L 163.261 194.6 L 163.261 187.6 Z" id="rect3320-1-5-6-9-6-5-1-4-5" stroke="#A4A69A" stroke-width="0.167332" stroke-dasharray="" stroke-opacity="1" fill="#010101" fill-opacity="1"/></g></svg>