<svg version="1.1" width="80.2721" height="121.701" xmlns="http://www.w3.org/2000/svg" xmlns:xlink="http://www.w3.org/1999/xlink" id="svg665" overflow="hidden"><defs id="defs669"></defs><g id="g671" transform="matrix(3.77953,0,0,3.77953,-293.117,-696.365)"><g id="g45898" transform="matrix(1,0,0,1,-87.154,-33.8645)"><path d=" M 173.847 220.211 C 173.707 220.212 173.566 220.217 173.426 220.227 C 173.409 220.228 173.392 220.23 173.375 220.231 C 173.03 220.257 172.688 220.31 172.351 220.39 C 172.341 220.393 172.331 220.395 172.32 220.398 C 172.24 220.417 172.16 220.438 172.081 220.461 C 172.015 220.479 171.949 220.499 171.884 220.519 C 171.811 220.543 171.739 220.568 171.666 220.594 C 171.569 220.629 171.472 220.667 171.377 220.707 C 171.308 220.734 171.239 220.764 171.171 220.794 C 171.109 220.823 171.047 220.853 170.985 220.884 C 170.977 220.888 170.97 220.891 170.962 220.895 C 170.838 220.956 170.716 221.022 170.596 221.091 C 170.385 221.214 170.182 221.349 169.986 221.495 C 169.914 221.549 169.843 221.604 169.774 221.66 C 169.233 222.1 168.766 222.623 168.392 223.211 C 168.109 223.655 167.88 224.132 167.712 224.631 L 164.847 233.211 L 168.01 233.211 L 180.846 233.211 L 180.846 230.211 L 169.012 230.211 L 170.557 225.581 C 171.03 224.166 172.355 223.211 173.847 223.211 L 176.846 223.211 L 176.847 223.211 L 180.846 223.211 L 180.846 220.211 L 176.847 220.211 L 176.846 220.211 Z M 172.981 220.272 C 172.942 220.277 172.903 220.282 172.864 220.288 C 172.903 220.282 172.942 220.277 172.981 220.272 Z" id="rect3296-5-7-2-7-5-7-1-9-4" stroke="#A4A69A" stroke-width="0.2" stroke-dasharray="" stroke-opacity="1" fill="#010101" fill-opacity="1"/><rect x="181.847" y="220.211" width="3" height="13" id="rect3322-6-4-0-1-7" stroke="#A4A69A" stroke-width="0.2" stroke-dasharray="" stroke-opacity="1" fill="#010101" fill-opacity="1"/></g><rect x="90.6925" y="189.347" width="3" height="6.99968" id="rect3322-6-0-3-9-3-7-9" stroke="#A4A69A" stroke-width="0.2" stroke-dasharray="" stroke-opacity="1" fill="#010101" fill-opacity="1"/><g id="g44802" transform="matrix(1,0,0,1,-87.154,-33.8645)"><rect x="180.847" y="222.211" width="0.999985" height="3" id="rect3296-5-0-2-8-2-5-9-4-8-3-7" stroke="#A4A69A" stroke-width="0.2" stroke-dasharray="" stroke-opacity="1" fill="#010101" fill-opacity="1"/><rect x="180.847" y="228.211" width="0.999985" height="3" id="rect3296-5-0-2-8-2-5-9-1-7-3" stroke="#A4A69A" stroke-width="0.2" stroke-dasharray="" stroke-opacity="1" fill="#010101" fill-opacity="1"/></g><rect x="97.6925" y="191.347" width="0.999985" height="3" id="rect3296-5-0-2-8-2-7-2-8" stroke="#A4A69A" stroke-width="0.2" stroke-dasharray="" stroke-opacity="1" fill="#010101" fill-opacity="1"/><path d=" M 77.6927 203.346 L 77.6927 206.347 L 89.7772 206.347 L 80.6925 213.347 L 80.6925 216.347 L 81.7141 216.347 L 97.6925 216.347 L 97.6925 213.347 L 85.6074 213.347 L 94.6927 206.347 L 94.6927 203.346 Z" id="rect3296-0-4-4-9" stroke="#A4A69A" stroke-width="0.2" stroke-dasharray="" stroke-opacity="1" fill="#010101" fill-opacity="1"/></g></svg>