<svg version="1.1" width="76.4953" height="57.4493" xmlns="http://www.w3.org/2000/svg" xmlns:xlink="http://www.w3.org/1999/xlink" id="svg70268" overflow="hidden"><defs id="defs70272"></defs><g id="g70274" transform="matrix(3.77953,0,0,3.77953,-487.745,-924.427)"><path d=" M 141.188 246.688 L 141.188 246.688 L 138.188 246.688 C 138.048 246.689 137.907 246.694 137.767 246.704 C 137.735 246.706 137.704 246.709 137.672 246.712 C 137.663 246.712 137.654 246.713 137.644 246.714 C 137.515 246.725 137.387 246.739 137.259 246.758 C 137.241 246.76 137.223 246.762 137.205 246.765 C 137.072 246.785 136.94 246.81 136.809 246.839 C 136.759 246.85 136.71 246.862 136.661 246.874 C 136.267 246.97 135.882 247.103 135.512 247.271 C 135.442 247.303 135.372 247.337 135.303 247.372 C 135.25 247.398 135.197 247.425 135.145 247.453 C 135.11 247.472 135.076 247.491 135.041 247.51 C 135.007 247.529 134.972 247.548 134.937 247.568 C 134.727 247.691 134.523 247.826 134.327 247.972 C 134.303 247.99 134.28 248.009 134.256 248.027 C 134.209 248.063 134.161 248.1 134.115 248.137 C 133.574 248.576 133.107 249.1 132.733 249.688 C 132.45 250.132 132.221 250.609 132.053 251.108 L 129.188 259.688 L 132.351 259.688 L 134.899 252.058 C 135.371 250.643 136.696 249.688 138.188 249.688 L 141.188 249.688 L 142.189 249.688 L 142.189 256.688 L 145.188 256.688 L 145.188 249.688 L 145.188 246.688 Z M 146.188 246.688 L 146.188 259.688 L 149.188 259.688 L 149.188 246.688 Z" id="rect3296-5-7-2-7-5-7-1-7-5-5" stroke="#A4A69A" stroke-width="0.2" stroke-dasharray="" stroke-opacity="1" fill="#010101" fill-opacity="1"/></g></svg>