<svg version="1.1" width="80.2744" height="121.701" xmlns="http://www.w3.org/2000/svg" xmlns:xlink="http://www.w3.org/1999/xlink" id="svg42301" overflow="hidden"><defs id="defs42305"></defs><g id="g42307" transform="matrix(3.77953,0,0,3.77953,-411.991,-827.101)"><rect x="117.145" y="218.937" width="3" height="2" id="rect3296-5-0-2-8-1-5-3-0-6-0-8-2-0" stroke="#A4A69A" stroke-width="0.2" stroke-dasharray="" stroke-opacity="1" fill="#010101" fill-opacity="1"/><path d=" M 109.145 220.937 L 109.145 223.937 L 112.69 223.937 C 113.876 222.071 115.934 220.939 118.145 220.938 L 121.145 220.938 L 121.145 220.937 Z" id="rect3161-3" stroke="#A4A69A" stroke-width="0.2" stroke-opacity="1" fill="#010101" fill-opacity="1"/><path d=" M 118.145 220.938 C 115.934 220.939 113.876 222.071 112.69 223.937 L 118.145 223.937 L 121.145 223.937 L 121.145 220.938 Z" id="rect3296-5-7-2-7-5-7-1-7-5" stroke="#A4A69A" stroke-width="0.2" stroke-dasharray="" stroke-opacity="1" fill="#010101" fill-opacity="1"/><rect x="121.145" y="220.937" width="3.99994" height="3.00002" id="rect12776-2-70-6" stroke="#A4A69A" stroke-width="0.178885" stroke-dasharray="" stroke-opacity="1" fill="#010101" fill-opacity="1"/><rect x="125.145" y="220.937" width="0.999989" height="3.00001" id="rect34285-1" stroke="#A4A69A" stroke-width="0.2" stroke-opacity="1" fill="#010101" fill-opacity="1"/><path d=" M 117.724 220.953 C 117.683 220.956 117.642 220.959 117.601 220.963 C 117.642 220.959 117.683 220.956 117.724 220.953 Z M 117.279 220.999 C 117.24 221.003 117.201 221.008 117.162 221.014 C 117.201 221.008 117.24 221.003 117.279 220.999 Z M 116.766 221.088 C 116.716 221.099 116.667 221.111 116.618 221.124 C 116.667 221.111 116.716 221.099 116.766 221.088 Z M 116.379 221.187 C 116.313 221.205 116.248 221.225 116.182 221.246 C 116.248 221.225 116.313 221.205 116.379 221.187 Z M 115.965 221.32 C 115.867 221.356 115.77 221.393 115.675 221.433 C 115.77 221.393 115.867 221.356 115.965 221.32 Z M 115.469 221.52 C 115.399 221.552 115.329 221.586 115.26 221.621 C 115.329 221.586 115.399 221.552 115.469 221.52 Z M 115.102 221.702 C 115.032 221.739 114.963 221.778 114.894 221.817 C 114.963 221.778 115.032 221.739 115.102 221.702 Z M 114.791 221.881 C 114.652 221.965 114.517 222.054 114.385 222.148 C 114.517 222.054 114.652 221.965 114.791 221.881 Z M 114.284 222.221 C 114.212 222.275 114.141 222.33 114.072 222.387 C 114.141 222.33 114.212 222.275 114.284 222.221 Z M 113.985 222.459 C 113.831 222.588 113.682 222.725 113.54 222.869 C 113.682 222.725 113.831 222.588 113.985 222.459 Z M 113.54 222.869 C 113.47 222.94 113.402 223.014 113.335 223.089 C 113.402 223.014 113.47 222.94 113.54 222.869 Z M 113.284 223.147 C 113.216 223.223 113.151 223.301 113.087 223.381 C 113.151 223.301 113.216 223.223 113.284 223.147 Z M 113.087 223.381 C 112.945 223.559 112.813 223.745 112.69 223.937 C 112.813 223.745 112.945 223.559 113.087 223.381 Z M 112.69 223.937 C 112.407 224.381 112.178 224.858 112.01 225.357 L 109.145 233.937 L 112.308 233.937 L 114.856 226.307 C 115.328 224.892 116.653 223.937 118.145 223.937 Z" id="rect3296-5-7-2-7-5-7-1-74" stroke="#A4A69A" stroke-width="0.2" stroke-dasharray="" stroke-opacity="1" fill="#010101" fill-opacity="1"/><rect x="118.145" y="223.937" width="3" height="7.00021" id="rect9865-5-3-8" stroke="#A4A69A" stroke-width="0.2" stroke-dasharray="" stroke-opacity="1" fill="#010101" fill-opacity="1"/><rect x="121.145" y="225.937" width="0.999985" height="3" id="rect3296-5-0-2-8-9-0-2-4-9" stroke="#A4A69A" stroke-width="0.2" stroke-dasharray="" stroke-opacity="1" fill="#010101" fill-opacity="1"/><rect x="122.145" y="223.937" width="3" height="7.00021" id="rect12778-8-9-2" stroke="#A4A69A" stroke-width="0.2" stroke-dasharray="" stroke-opacity="1" fill="#010101" fill-opacity="1"/><g id="g14967-0-7-8" stroke="#A4A69A" stroke-width="0.2" stroke-dasharray="" stroke-opacity="1" fill="#010101" fill-opacity="1" transform="matrix(1,0,0,1,24.3477,192.785)"><rect x="100.798" y="31.1523" width="0.999985" height="2" id="rect3296-5-0-2-8-8-1-9-3-7-1-9" stroke="#A4A69A" stroke-width="0.2" stroke-dasharray="" stroke-opacity="1" fill="#010101" fill-opacity="1"/><rect x="100.798" y="36.1523" width="0.999985" height="2" id="rect3296-5-0-2-8-8-1-4-9-5-5-9-1" stroke="#A4A69A" stroke-width="0.2" stroke-dasharray="" stroke-opacity="1" fill="#010101" fill-opacity="1"/></g><rect x="125.145" y="225.937" width="0.999985" height="3" id="rect3296-5-0-2-8-8-2-7-0-0-8" stroke="#A4A69A" stroke-width="0.2" stroke-dasharray="" stroke-opacity="1" fill="#010101" fill-opacity="1"/><rect x="126.145" y="220.937" width="3" height="13" id="rect3322-6-0-1-0-3-9-4" stroke="#A4A69A" stroke-width="0.2" stroke-dasharray="" stroke-opacity="1" fill="#010101" fill-opacity="1"/><rect x="129.145" y="225.937" width="0.999985" height="3" id="rect3296-5-0-2-8-1-6-2-4-5-7-1" stroke="#A4A69A" stroke-width="0.2" stroke-dasharray="" stroke-opacity="1" fill="#010101" fill-opacity="1"/><path d=" M 113.31 230.937 L 112.308 233.937 L 121.145 233.937 L 121.145 230.937 Z" id="rect3296-5-0-2-7-5-8-9-72-6" stroke="#A4A69A" stroke-width="0.2" stroke-dasharray="" stroke-opacity="1" fill="#010101" fill-opacity="1"/><rect x="121.145" y="230.937" width="3.99998" height="3" id="rect14963-4-9-6" stroke="#A4A69A" stroke-width="0.178885" stroke-dasharray="" stroke-opacity="1" fill="#010101" fill-opacity="1"/><rect x="125.145" y="230.937" width="0.999995" height="3.00002" id="rect34287-7" stroke="#A4A69A" stroke-width="0.2" stroke-opacity="1" fill="#010101" fill-opacity="1"/><path d=" M 117.617 234.187 L 117.617 234.687 L 109.145 234.687 L 109.145 237.687 L 129.145 237.687 L 129.145 234.687 L 120.617 234.687 L 120.617 234.187 Z" id="rect3296-5-6-7-8-7-3-7-6" stroke="#A4A69A" stroke-width="0.2" stroke-dasharray="" stroke-opacity="1" fill="#010101" fill-opacity="1"/><rect x="109.145" y="237.937" width="8.5" height="3" id="rect34096-1-5-2" stroke="#A4A69A" stroke-width="0.2" stroke-dasharray="" stroke-opacity="1" fill="#010101" fill-opacity="1"/><path d=" M 117.645 237.937 L 117.645 240.937 L 117.645 243.094 L 119.134 240.937 L 129.145 240.937 L 129.145 237.937 L 121.205 237.937 Z" id="rect3296-5-01-7-5-6-9-8" stroke="#A4A69A" stroke-width="0.2" stroke-dasharray="" stroke-opacity="1" fill="#010101" fill-opacity="1"/><rect x="109.145" y="240.937" width="3" height="10" id="rect3320-0-26-6-3-7-1" stroke="#A4A69A" stroke-width="0.2" stroke-dasharray="" stroke-opacity="1" fill="#010101" fill-opacity="1"/><path d=" M 115.489 240.937 L 112.145 245.781 L 112.145 247.937 L 114.302 247.937 L 117.645 243.094 L 117.645 240.937 Z" id="rect3296-4-4-0-3-9-5-2-5" stroke="#A4A69A" stroke-width="0.2" stroke-dasharray="" stroke-opacity="1" fill="#010101" fill-opacity="1"/><path d=" M 119.134 240.937 L 117.645 243.094 L 117.645 247.937 L 120.645 247.937 L 120.645 240.937 Z" id="rect3322-6-0-8-7-5-2-5-8-6" stroke="#A4A69A" stroke-width="0.2" stroke-dasharray="" stroke-opacity="1" fill="#010101" fill-opacity="1"/><path d=" M 126.145 240.937 L 120.645 247.937 L 124.46 247.937 L 126.145 245.793 Z" id="rect3322-2-7-9-0-5-5-1" stroke="#A4A69A" stroke-width="0.2" stroke-dasharray="" stroke-opacity="1" fill="#010101" fill-opacity="1"/><rect x="126.145" y="240.937" width="3.00026" height="7.0002" id="rect39974-6-5-9" stroke="#A4A69A" stroke-width="0.2" stroke-dasharray="" stroke-opacity="1" fill="#010101" fill-opacity="1"/><rect x="112.145" y="247.937" width="17" height="3" id="rect3296-4-8-8-4-8-2" stroke="#A4A69A" stroke-width="0.2" stroke-dasharray="" stroke-opacity="1" fill="#010101" fill-opacity="1"/></g></svg>