<svg version="1.1" width="76.784" height="121.823" xmlns="http://www.w3.org/2000/svg" xmlns:xlink="http://www.w3.org/1999/xlink" id="svg77149" overflow="hidden"><defs id="defs77153"></defs><g id="g77155" transform="matrix(3.77953,0,0,3.77953,-507.302,-823.507)"><path d=" M 143.408 219.986 C 143.267 219.987 143.126 219.992 142.986 220.002 C 142.969 220.003 142.953 220.004 142.936 220.006 C 142.591 220.031 142.248 220.084 141.912 220.165 C 141.901 220.167 141.891 220.17 141.881 220.173 C 141.801 220.192 141.721 220.213 141.641 220.235 C 141.576 220.254 141.51 220.273 141.445 220.294 C 141.372 220.318 141.299 220.343 141.227 220.369 C 141.13 220.404 141.033 220.441 140.937 220.481 C 140.868 220.509 140.8 220.538 140.731 220.568 C 140.669 220.597 140.607 220.627 140.546 220.658 C 140.538 220.662 140.53 220.666 140.522 220.67 C 140.398 220.731 140.276 220.796 140.157 220.866 C 139.946 220.989 139.742 221.124 139.546 221.27 C 139.475 221.323 139.404 221.379 139.334 221.435 C 138.793 221.874 138.327 222.398 137.953 222.986 C 137.953 222.986 137.952 222.986 137.952 222.986 C 137.811 223.208 137.683 223.438 137.569 223.675 C 137.456 223.913 137.357 224.157 137.273 224.406 L 134.407 232.986 L 143.408 232.986 L 145.907 232.986 L 148.907 232.986 L 148.907 232.986 L 151.407 232.986 L 154.407 232.986 L 154.407 219.986 L 151.407 219.986 L 151.407 223.986 L 140.975 223.986 C 141.003 223.959 141.031 223.932 141.06 223.906 C 141.104 223.865 141.149 223.826 141.195 223.787 C 141.234 223.755 141.273 223.724 141.313 223.693 C 141.357 223.66 141.402 223.628 141.447 223.597 C 141.49 223.568 141.533 223.539 141.577 223.512 C 141.624 223.483 141.672 223.455 141.72 223.428 C 141.766 223.402 141.813 223.377 141.86 223.353 C 141.908 223.33 141.956 223.307 142.005 223.286 C 142.054 223.264 142.104 223.243 142.154 223.223 C 142.205 223.204 142.256 223.186 142.308 223.169 C 142.356 223.152 142.405 223.136 142.455 223.121 C 142.511 223.106 142.568 223.092 142.626 223.079 C 142.673 223.067 142.721 223.056 142.769 223.046 C 142.829 223.036 142.89 223.027 142.95 223.02 C 142.995 223.013 143.04 223.007 143.085 223.001 C 143.192 222.991 143.3 222.986 143.408 222.986 Z M 142.542 220.047 C 142.503 220.052 142.463 220.057 142.424 220.063 C 142.463 220.057 142.503 220.052 142.542 220.047 Z M 139.574 226.986 L 151.407 226.986 L 151.407 229.987 L 148.907 229.987 L 148.907 229.986 L 145.907 229.986 L 143.408 229.986 L 143.408 229.985 L 138.572 229.985 Z M 134.407 233.236 L 134.407 236.236 L 142.907 236.236 L 142.907 236.736 L 145.907 236.736 L 145.907 236.236 L 154.407 236.236 L 154.407 233.236 Z M 134.407 239.986 L 134.407 249.986 L 136.405 249.986 L 154.407 249.986 L 154.407 246.986 L 137.407 246.986 L 137.407 246.986 L 137.407 239.986 Z" id="rect3296-5-6-6-5" stroke="#A4A69A" stroke-width="0.264583" stroke-opacity="1" fill="#010101" fill-opacity="1"/></g></svg>