<svg version="1.1" width="80.2727" height="121.701" xmlns="http://www.w3.org/2000/svg" xmlns:xlink="http://www.w3.org/1999/xlink" id="svg25965" overflow="hidden"><defs id="defs25969"></defs><g id="g25971" transform="matrix(3.77953,0,0,3.77953,-46.1541,-631.767)"><rect x="20.3505" y="167.255" width="3" height="2" id="rect3296-5-0-2-8-1-5-3-0-6-5-1-8" stroke="#A4A69A" stroke-width="0.2" stroke-dasharray="" stroke-opacity="1" fill="#010101" fill-opacity="1"/><path d=" M 12.3504 169.254 L 12.3504 172.255 L 15.896 172.255 C 17.0819 170.388 19.1393 169.257 21.3509 169.255 L 24.3507 169.255 L 24.3507 169.254 Z" id="rect3161-5-2" stroke="#A4A69A" stroke-width="0.2" stroke-opacity="1" fill="#010101" fill-opacity="1"/><path d=" M 21.3507 169.255 C 19.1391 169.256 17.0817 170.388 15.8958 172.255 L 21.3507 172.255 L 24.3505 172.255 L 26.8501 172.255 L 26.8501 172.255 L 27.8506 172.255 L 27.8506 169.255 L 26.8501 169.255 L 24.3505 169.255 Z" id="rect3296-5-7-2-7-5-7-1-7-8-9" stroke="#A4A69A" stroke-width="0.2" stroke-dasharray="" stroke-opacity="1" fill="#010101" fill-opacity="1"/><rect x="27.8503" y="169.255" width="1.50011" height="3" id="rect10209-3" stroke="#A4A69A" stroke-width="0.2" stroke-opacity="1" fill="#010101" fill-opacity="1"/><path d=" M 20.9292 169.27 C 20.8884 169.273 20.8476 169.277 20.8068 169.28 C 20.8476 169.277 20.8884 169.273 20.9292 169.27 Z M 20.4848 169.316 C 20.4457 169.321 20.4066 169.326 20.3675 169.331 C 20.4066 169.326 20.4457 169.321 20.4848 169.316 Z M 19.9712 169.405 C 19.9219 169.417 19.8728 169.429 19.8239 169.441 C 19.8728 169.429 19.9219 169.417 19.9712 169.405 Z M 19.5846 169.504 C 19.5187 169.523 19.4531 169.542 19.3877 169.563 C 19.4531 169.542 19.5187 169.523 19.5846 169.504 Z M 19.1702 169.638 C 19.0727 169.673 18.976 169.71 18.8803 169.75 C 18.976 169.71 19.0727 169.673 19.1702 169.638 Z M 18.6746 169.837 C 18.6042 169.87 18.5345 169.904 18.4653 169.939 C 18.5345 169.904 18.6042 169.87 18.6746 169.837 Z M 18.3077 170.02 C 18.2378 170.057 18.1685 170.095 18.1 170.134 C 18.1685 170.095 18.2378 170.057 18.3077 170.02 Z M 17.9961 170.198 C 17.8577 170.282 17.7226 170.371 17.591 170.466 C 17.7226 170.371 17.8577 170.282 17.9961 170.198 Z M 17.4897 170.539 C 17.4177 170.592 17.3469 170.647 17.2773 170.704 C 17.3469 170.647 17.4177 170.592 17.4897 170.539 Z M 17.191 170.776 C 17.0362 170.906 16.8875 171.043 16.7455 171.186 C 16.8875 171.043 17.0362 170.906 17.191 170.776 Z M 16.7455 171.186 C 16.6754 171.258 16.607 171.331 16.5404 171.406 C 16.607 171.331 16.6754 171.258 16.7455 171.186 Z M 16.4892 171.464 C 16.4217 171.541 16.3561 171.619 16.2923 171.698 C 16.3561 171.619 16.4217 171.541 16.4892 171.464 Z M 16.2923 171.698 C 16.1505 171.877 16.0182 172.062 15.896 172.255 C 16.0182 172.062 16.1505 171.877 16.2923 171.698 Z M 15.896 172.255 C 15.6123 172.699 15.3839 173.176 15.2159 173.675 L 12.3504 182.255 L 15.5136 182.255 L 18.0612 174.625 C 18.5337 173.209 19.8587 172.255 21.3509 172.255 Z" id="rect3296-5-7-2-7-5-7-1-0-90" stroke="#A4A69A" stroke-width="0.2" stroke-dasharray="" stroke-opacity="1" fill="#010101" fill-opacity="1"/><rect x="23.8505" y="172.255" width="2.99982" height="7.00009" id="rect1355-2-9-1" stroke="#A4A69A" stroke-width="0.2" stroke-dasharray="" stroke-opacity="1" fill="#010101" fill-opacity="1"/><rect x="29.3505" y="169.255" width="3" height="13" id="rect3322-6-2-3-8-3-9" stroke="#A4A69A" stroke-width="0.2" stroke-dasharray="" stroke-opacity="1" fill="#010101" fill-opacity="1"/><rect x="32.3505" y="174.255" width="0.999985" height="3" id="rect3296-5-0-2-8-1-8-3-9-8-72" stroke="#A4A69A" stroke-width="0.2" stroke-dasharray="" stroke-opacity="1" fill="#010101" fill-opacity="1"/><path d=" M 16.515 179.255 L 15.5136 182.255 L 23.8505 182.255 L 26.8503 182.255 L 26.8503 179.255 L 23.8505 179.255 Z" id="rect3296-5-0-8-0-0-3-08" stroke="#A4A69A" stroke-width="0.2" stroke-dasharray="" stroke-opacity="1" fill="#010101" fill-opacity="1"/><rect x="26.8503" y="179.255" width="2.50017" height="3" id="rect3296-5-0-2-8-1-0-5-2-9-3-1" stroke="#A4A69A" stroke-width="0.2" stroke-dasharray="" stroke-opacity="1" fill="#010101" fill-opacity="1"/><path d=" M 12.3504 182.505 L 12.3504 185.505 L 16.8503 185.505 L 16.8503 186.005 L 19.8502 186.005 L 19.8502 185.505 L 24.8504 185.505 L 24.8504 186.005 L 27.8502 186.005 L 27.8502 185.505 L 32.3502 185.505 L 32.3502 182.505 Z" id="rect3296-5-6-79-7-6-7-3" stroke="#A4A69A" stroke-width="0.2" stroke-dasharray="" stroke-opacity="1" fill="#010101" fill-opacity="1"/><path d=" M 12.3501 186.255 L 12.3501 189.255 L 17.6878 189.255 L 20.8504 189.255 L 21.8519 186.255 L 18.6893 186.255 Z" id="rect3296-5-01-5-0-6-0-9" stroke="#A4A69A" stroke-width="0.2" stroke-dasharray="" stroke-opacity="1" fill="#010101" fill-opacity="1"/><path d=" M 21.8519 186.255 L 20.8504 189.255 L 32.3505 189.255 L 32.3505 186.255 Z" id="rect3296-5-01-5-9-8-7" stroke="#A4A69A" stroke-width="0.2" stroke-dasharray="" stroke-opacity="1" fill="#010101" fill-opacity="1"/><path d=" M 12.3501 189.255 L 12.3501 199.255 L 14.3485 199.255 L 15.3505 196.255 L 15.3505 189.255 Z" id="rect3320-0-4-1-2-0" stroke="#A4A69A" stroke-width="0.2" stroke-dasharray="" stroke-opacity="1" fill="#010101" fill-opacity="1"/><path d=" M 17.6878 189.255 L 15.3505 196.255 L 15.3505 196.255 L 18.5131 196.255 L 20.8504 189.255 Z" id="rect3322-2-2-7-2-7-0" stroke="#A4A69A" stroke-width="0.2" stroke-dasharray="" stroke-opacity="1" fill="#010101" fill-opacity="1"/><rect x="20.8503" y="189.255" width="3" height="6.99999" id="rect3322-6-0-8-9-1-0-1" stroke="#A4A69A" stroke-width="0.2" stroke-dasharray="" stroke-opacity="1" fill="#010101" fill-opacity="1"/><path d=" M 29.3501 189.255 L 23.8502 196.255 L 27.6655 196.255 L 29.3501 194.111 Z" id="rect3322-2-7-4-8-1-8" stroke="#A4A69A" stroke-width="0.2" stroke-dasharray="" stroke-opacity="1" fill="#010101" fill-opacity="1"/><rect x="29.3503" y="189.255" width="3" height="7" id="rect3322-2-4-2-2-8" stroke="#A4A69A" stroke-width="0.2" stroke-dasharray="" stroke-opacity="1" fill="#010101" fill-opacity="1"/><path d=" M 15.3505 196.255 L 14.3485 199.255 L 32.3505 199.255 L 32.3505 196.255 Z" id="rect3296-4-3-4-6-3" stroke="#A4A69A" stroke-width="0.2" stroke-dasharray="" stroke-opacity="1" fill="#010101" fill-opacity="1"/></g></svg>