<svg version="1.1" width="80.2724" height="121.701" xmlns="http://www.w3.org/2000/svg" xmlns:xlink="http://www.w3.org/1999/xlink" id="svg60979" overflow="hidden"><defs id="defs60983"></defs><g id="g60985" transform="matrix(3.77953,0,0,3.77953,-515.899,-696.426)"><rect x="144.637" y="184.363" width="3" height="2" id="rect3296-5-0-2-8-1-5-3-0-6-2" stroke="#A4A69A" stroke-width="0.2" stroke-dasharray="" stroke-opacity="1" fill="#010101" fill-opacity="1"/><path d=" M 136.637 186.363 L 136.637 189.363 L 140.183 189.363 C 141.368 187.496 143.426 186.365 145.638 186.363 L 148.637 186.363 L 148.637 186.363 Z" id="rect3161-9" stroke="#A4A69A" stroke-width="0.2" stroke-opacity="1" fill="#010101" fill-opacity="1"/><path d=" M 145.638 186.363 C 143.426 186.364 141.369 187.496 140.183 189.363 L 145.638 189.363 L 148.637 189.363 L 151.137 189.363 L 152.137 189.363 L 152.137 186.363 L 151.137 186.363 L 148.637 186.363 Z" id="rect3296-5-0-2-8-1-9-6-9-9" stroke="#A4A69A" stroke-width="0.200001" stroke-dasharray="" stroke-opacity="1" fill="#010101" fill-opacity="1"/><path d=" M 152.137 186.363 L 152.137 189.363 L 153.637 189.363 L 153.637 186.363 Z M 151.137 196.363 L 151.137 199.363 L 153.637 199.363 L 153.637 196.363 Z" id="rect3296-5-0-2-8-1-0-5-2-93" stroke="#A4A69A" stroke-width="0.2" stroke-dasharray="" stroke-opacity="1" fill="#010101" fill-opacity="1"/><path d=" M 145.216 186.378 C 145.175 186.381 145.134 186.384 145.093 186.388 C 145.134 186.384 145.175 186.381 145.216 186.378 Z M 144.772 186.424 C 144.732 186.429 144.693 186.434 144.654 186.439 C 144.693 186.434 144.732 186.429 144.772 186.424 Z M 144.258 186.513 C 144.209 186.524 144.16 186.536 144.111 186.549 C 144.16 186.536 144.209 186.524 144.258 186.513 Z M 143.871 186.612 C 143.805 186.63 143.74 186.65 143.674 186.671 C 143.74 186.65 143.805 186.63 143.871 186.612 Z M 143.457 186.746 C 143.359 186.781 143.263 186.818 143.167 186.858 C 143.263 186.818 143.359 186.781 143.457 186.746 Z M 142.961 186.945 C 142.891 186.978 142.821 187.011 142.752 187.046 C 142.821 187.011 142.891 186.978 142.961 186.945 Z M 142.594 187.128 C 142.524 187.165 142.455 187.203 142.387 187.242 C 142.455 187.203 142.524 187.165 142.594 187.128 Z M 142.283 187.306 C 142.144 187.39 142.009 187.479 141.878 187.574 C 142.009 187.479 142.144 187.39 142.283 187.306 Z M 141.776 187.646 C 141.704 187.7 141.634 187.755 141.564 187.812 C 141.634 187.755 141.704 187.7 141.776 187.646 Z M 141.478 187.884 C 141.323 188.014 141.174 188.15 141.032 188.294 C 141.174 188.15 141.323 188.014 141.478 187.884 Z M 141.032 188.294 C 140.962 188.366 140.894 188.439 140.827 188.514 C 140.894 188.439 140.962 188.366 141.032 188.294 Z M 140.776 188.572 C 140.708 188.648 140.643 188.726 140.579 188.806 C 140.643 188.726 140.708 188.648 140.776 188.572 Z M 140.579 188.806 C 140.437 188.984 140.305 189.17 140.183 189.363 C 140.305 189.17 140.437 188.984 140.579 188.806 Z M 140.183 189.363 C 139.899 189.806 139.671 190.283 139.503 190.783 L 136.637 199.362 L 139.8 199.362 L 142.348 191.732 C 142.82 190.317 144.145 189.363 145.638 189.363 Z" id="rect3296-5-7-2-7-5-7-1-78" stroke="#A4A69A" stroke-width="0.2" stroke-dasharray="" stroke-opacity="1" fill="#010101" fill-opacity="1"/><path d=" M 142.471 191.362 L 141.47 194.362 L 148.137 194.362 L 148.137 191.362 Z" id="rect14193" stroke="#A4A69A" stroke-width="0.212024" stroke-opacity="1" fill="#010101" fill-opacity="1"/><rect x="148.137" y="189.363" width="2.99982" height="7.00009" id="rect1355-5" stroke="#A4A69A" stroke-width="0.2" stroke-dasharray="" stroke-opacity="1" fill="#010101" fill-opacity="1"/><g id="g14967-4-4" stroke="#A4A69A" stroke-width="0.2" stroke-dasharray="" stroke-opacity="1" fill="#010101" fill-opacity="1" transform="matrix(1,0,0,1,51.8394,158.21)"><rect x="100.798" y="31.1523" width="0.999985" height="2" id="rect3296-5-0-2-8-8-1-9-3-9-8" stroke="#A4A69A" stroke-width="0.2" stroke-dasharray="" stroke-opacity="1" fill="#010101" fill-opacity="1"/><rect x="100.798" y="36.1523" width="0.999985" height="2" id="rect3296-5-0-2-8-8-1-4-9-5-53-8" stroke="#A4A69A" stroke-width="0.2" stroke-dasharray="" stroke-opacity="1" fill="#010101" fill-opacity="1"/></g><rect x="152.637" y="191.363" width="0.999985" height="3" id="rect3296-5-0-2-8-8-2-7-6-0" stroke="#A4A69A" stroke-width="0.2" stroke-dasharray="" stroke-opacity="1" fill="#010101" fill-opacity="1"/><rect x="153.637" y="186.363" width="3" height="13" id="rect3322-6-0-1-0-7-5" stroke="#A4A69A" stroke-width="0.2" stroke-dasharray="" stroke-opacity="1" fill="#010101" fill-opacity="1"/><rect x="156.637" y="191.363" width="0.999985" height="3" id="rect3296-5-0-2-8-1-6-2-4-58-0" stroke="#A4A69A" stroke-width="0.2" stroke-dasharray="" stroke-opacity="1" fill="#010101" fill-opacity="1"/><path d=" M 140.802 196.363 L 139.8 199.362 L 148.137 199.362 L 151.137 199.362 L 151.137 196.363 L 148.137 196.363 Z" id="rect3296-5-0-8-0-7" stroke="#A4A69A" stroke-width="0.2" stroke-dasharray="" stroke-opacity="1" fill="#010101" fill-opacity="1"/><rect x="136.637" y="203.363" width="19.9998" height="3" id="rect3296-5-8-8-6" stroke="#A4A69A" stroke-width="0.216929" stroke-dasharray="" stroke-opacity="1" fill="#010101" fill-opacity="1"/><rect x="136.637" y="206.363" width="2.99975" height="6.99998" id="rect20475" stroke="#A4A69A" stroke-width="0.2" stroke-opacity="1" fill="#010101" fill-opacity="1"/><g id="g20479" stroke="#A4A69A" stroke-opacity="1" fill="#010101" fill-opacity="1" transform="matrix(1,0,0,1,-5.56043,43.478)"><path d=" M 147.535 162.885 L 145.197 169.885 L 148.36 169.885 L 150.697 162.885 Z" id="rect19506" stroke="#A4A69A" stroke-width="0.2" stroke-opacity="1" fill="#010101" fill-opacity="1"/><path d=" M 156.86 162.885 L 159.197 169.885 L 156.035 169.885 L 153.697 162.885 Z" id="rect19506-1" stroke="#A4A69A" stroke-width="0.2" stroke-opacity="1" fill="#010101" fill-opacity="1"/></g><rect x="145.137" y="206.363" width="3" height="7" id="rect3320-1-5-6-9-6-5-1" stroke="#A4A69A" stroke-width="0.167332" stroke-dasharray="" stroke-opacity="1" fill="#010101" fill-opacity="1"/><rect x="153.637" y="206.363" width="2.99981" height="7.00009" id="rect20469" stroke="#A4A69A" stroke-width="0.2" stroke-opacity="1" fill="#010101" fill-opacity="1"/><rect x="136.637" y="213.363" width="19.9998" height="3.00008" id="rect20473" stroke="#A4A69A" stroke-width="0.2" stroke-opacity="1" fill="#010101" fill-opacity="1"/></g></svg>