<svg version="1.1" width="80.2736" height="121.64" xmlns="http://www.w3.org/2000/svg" xmlns:xlink="http://www.w3.org/1999/xlink" id="svg67210" overflow="hidden"><defs id="defs67214"></defs><g id="g67216" transform="matrix(3.77953,0,0,3.77953,-404.05,-549.487)"><path d=" M 107.044 147.485 L 107.044 150.486 L 110.589 150.486 C 111.775 148.619 113.833 147.488 116.044 147.486 L 119.044 147.486 L 119.044 147.485 Z" id="rect3161-2-7" stroke="#A4A69A" stroke-width="0.2" stroke-opacity="1" fill="#010101" fill-opacity="1"/><path d=" M 116.044 147.485 C 115.904 147.486 115.763 147.491 115.623 147.501 C 115.582 147.504 115.541 147.507 115.5 147.511 C 115.393 147.52 115.285 147.532 115.178 147.547 C 115.139 147.551 115.1 147.557 115.061 147.562 C 114.779 147.606 114.5 147.669 114.226 147.75 C 114.178 147.764 114.129 147.779 114.081 147.794 C 114.008 147.817 113.936 147.842 113.864 147.869 C 113.766 147.904 113.669 147.941 113.574 147.981 C 113.505 148.009 113.436 148.038 113.368 148.068 C 113.344 148.08 113.32 148.091 113.296 148.103 C 113.25 148.125 113.204 148.147 113.159 148.169 C 113.106 148.196 113.053 148.223 113.001 148.25 C 112.966 148.269 112.932 148.288 112.897 148.308 C 112.862 148.327 112.828 148.346 112.793 148.365 C 112.582 148.488 112.379 148.623 112.183 148.769 C 112.159 148.788 112.136 148.806 112.112 148.825 C 112.065 148.861 112.017 148.897 111.971 148.935 C 111.43 149.374 110.963 149.898 110.589 150.485 C 110.306 150.929 110.077 151.406 109.909 151.906 L 107.044 160.485 L 110.207 160.485 L 112.755 152.855 C 113.227 151.44 114.552 150.485 116.044 150.486 L 119.044 150.485 L 119.044 147.486 Z M 114.665 147.636 C 114.615 147.647 114.566 147.659 114.517 147.671 C 114.566 147.659 114.615 147.647 114.665 147.636 Z" id="rect3296-5-7-2-7-5-7-1-96-8" stroke="#A4A69A" stroke-width="0.2" stroke-dasharray="" stroke-opacity="1" fill="#010101" fill-opacity="1"/><g id="g65487"><rect x="120.044" y="157.485" width="2.99997" height="3" id="rect14963-4-0-5" stroke="#A4A69A" stroke-width="0.154919" stroke-dasharray="" stroke-opacity="1" fill="#010101" fill-opacity="1"/><rect x="119.044" y="147.485" width="3.99995" height="3.00002" id="rect12776-2-7-9" stroke="#A4A69A" stroke-width="0.178886" stroke-dasharray="" stroke-opacity="1" fill="#010101" fill-opacity="1"/></g><g id="g61907" stroke="#A4A69A" stroke-opacity="1"><rect x="123.044" y="147.485" width="0.999985" height="3.00002" id="rect61897" stroke="#A4A69A" stroke-width="0.2" stroke-dasharray="" stroke-opacity="1" fill="#010101" fill-opacity="1"/><rect x="123.044" y="157.485" width="0.999985" height="3" id="rect61899" stroke="#A4A69A" stroke-width="0.2" stroke-dasharray="" stroke-opacity="1" fill="#010101" fill-opacity="1"/></g><rect x="116.044" y="150.485" width="3" height="7.00021" id="rect9865-5-9-0" stroke="#A4A69A" stroke-width="0.2" stroke-dasharray="" stroke-opacity="1" fill="#010101" fill-opacity="1"/><rect x="120.044" y="150.485" width="3" height="7.00021" id="rect12778-8-6-5" stroke="#A4A69A" stroke-width="0.2" stroke-dasharray="" stroke-opacity="1" fill="#010101" fill-opacity="1"/><rect x="123.044" y="152.485" width="0.999985" height="3" id="rect3296-5-0-2-8-8-2-7-0-2-5" stroke="#A4A69A" stroke-width="0.2" stroke-dasharray="" stroke-opacity="1" fill="#010101" fill-opacity="1"/><rect x="124.044" y="147.485" width="3" height="13" id="rect3322-6-0-1-0-3-2-9" stroke="#A4A69A" stroke-width="0.2" stroke-dasharray="" stroke-opacity="1" fill="#010101" fill-opacity="1"/><rect x="127.044" y="152.485" width="0.999985" height="3" id="rect3296-5-0-2-8-1-6-2-4-5-0-8" stroke="#A4A69A" stroke-width="0.2" stroke-dasharray="" stroke-opacity="1" fill="#010101" fill-opacity="1"/><path d=" M 111.208 157.485 L 110.207 160.485 L 119.044 160.485 L 120.044 160.485 L 120.044 157.485 L 119.044 157.485 Z" id="rect3296-5-0-2-7-5-8-9-7-4" stroke="#A4A69A" stroke-width="0.2" stroke-dasharray="" stroke-opacity="1" fill="#010101" fill-opacity="1"/><path d=" M 115.544 167.485 L 115.544 174.485 L 107.044 174.485 L 107.044 177.485 L 127.044 177.485 L 127.044 174.485 L 118.544 174.485 L 118.544 167.485 Z" id="rect3320-1-5-6-9-6-5-1-4-9" stroke="#A4A69A" stroke-width="0.167332" stroke-dasharray="" stroke-opacity="1" fill="#010101" fill-opacity="1"/></g></svg>