<svg version="1.1" width="80.272" height="121.323" xmlns="http://www.w3.org/2000/svg" xmlns:xlink="http://www.w3.org/1999/xlink" id="svg6007" overflow="hidden"><defs id="defs6011"></defs><g id="g6013" transform="matrix(3.77953,0,0,3.77953,-25.7919,-924.255)"><g id="g4479" transform="matrix(1,0,0,1,0.0999991,8.48927)"><rect x="23.8628" y="238.053" width="3" height="13" id="rect3322-6-4-0" stroke="#A4A69A" stroke-width="0.2" stroke-dasharray="" stroke-opacity="1" fill="#010101" fill-opacity="1"/><path d=" M 11.2032 238.053 L 6.86293 251.053 L 10.0255 251.053 L 22.863 251.053 L 22.863 248.053 L 11.027 248.053 L 13.3643 241.053 L 22.863 241.053 L 22.863 238.053 L 14.3663 238.053 Z" id="rect3296-5-0-4-2" stroke="#A4A69A" stroke-width="0.2" stroke-dasharray="" stroke-opacity="1" fill="#010101" fill-opacity="1"/></g><rect x="19.9628" y="249.543" width="3" height="6.99968" id="rect3322-6-0-3-9-3" stroke="#A4A69A" stroke-width="0.2" stroke-dasharray="" stroke-opacity="1" fill="#010101" fill-opacity="1"/><g id="g4475" transform="matrix(1,0,0,1,0.0999991,8.48927)"><rect x="22.8628" y="246.053" width="0.999985" height="3" id="rect3296-5-0-2-8-2-5-9-1" stroke="#A4A69A" stroke-width="0.2" stroke-dasharray="" stroke-opacity="1" fill="#010101" fill-opacity="1"/><rect x="22.8628" y="240.053" width="0.999985" height="3" id="rect3296-5-0-2-8-2-5-9-4-8" stroke="#A4A69A" stroke-width="0.2" stroke-dasharray="" stroke-opacity="1" fill="#010101" fill-opacity="1"/></g><rect x="26.9628" y="251.542" width="0.999985" height="3" id="rect3296-5-0-2-8-2-7" stroke="#A4A69A" stroke-width="0.2" stroke-dasharray="" stroke-opacity="1" fill="#010101" fill-opacity="1"/><path d=" M 6.96292 263.542 L 6.96292 266.543 L 19.0475 266.543 L 9.96274 273.543 L 9.96274 276.543 L 10.9844 276.543 L 26.9627 276.543 L 26.9627 273.543 L 14.8777 273.543 L 23.9629 266.543 L 23.9629 263.542 Z" id="rect3296-0-4" stroke="#A4A69A" stroke-width="0.2" stroke-dasharray="" stroke-opacity="1" fill="#010101" fill-opacity="1"/></g></svg>