<svg version="1.1" width="80.8185" height="121.551" xmlns="http://www.w3.org/2000/svg" xmlns:xlink="http://www.w3.org/1999/xlink" id="svg40932" overflow="hidden"><defs id="defs40936"></defs><g id="g40938" transform="matrix(3.77953,0,0,3.77953,-683.637,-428.373)"><path d=" M 186.442 115.34 L 182.102 128.34 L 184.053 128.34 L 185.264 128.34 L 198.102 128.34 L 199.102 128.34 L 202.102 128.34 L 202.102 115.34 L 199.102 115.34 L 199.102 119.341 L 188.269 119.341 L 189.605 115.34 Z M 187.268 122.341 L 199.102 122.341 L 199.102 125.34 L 198.102 125.34 L 186.266 125.34 Z M 182.102 128.59 L 182.102 131.59 L 190.602 131.59 L 190.602 132.34 L 193.602 132.34 L 193.602 131.59 L 202.102 131.59 L 202.102 128.59 Z M 182.102 135.34 L 182.102 145.34 L 185.102 145.34 L 202.102 145.34 L 202.102 142.34 L 185.102 142.34 L 185.102 135.34 Z" id="rect3322-2-2-2-6-1-1-1" stroke="#A4A69A" stroke-width="0.321127" stroke-opacity="1" fill="#010101" fill-opacity="1"/></g></svg>