<svg version="1.1" width="76.4944" height="57.4493" xmlns="http://www.w3.org/2000/svg" xmlns:xlink="http://www.w3.org/1999/xlink" id="svg18699" overflow="hidden"><defs id="defs18703"></defs><g id="g18705" transform="matrix(3.77953,0,0,3.77953,-636.339,122.066)"><path d=" M 176.306 -30.2033 C 176.24 -30.204 176.174 -30.2033 176.109 -30.2012 C 174.214 -30.1427 172.536 -28.9613 171.843 -27.1973 L 168.503 -17.1968 L 171.667 -17.1968 L 174.531 -25.7757 C 174.814 -26.6245 175.609 -27.1971 176.503 -27.1973 L 180.003 -27.1973 L 180.003 -20.1967 L 183.003 -20.1967 L 183.003 -27.1968 L 184.003 -27.1968 L 184.003 -30.1971 L 180.504 -30.1971 L 176.503 -30.1971 C 176.438 -30.2004 176.372 -30.2023 176.306 -30.2028 Z M 185.503 -30.1966 L 185.503 -17.1964 L 188.504 -17.1964 L 188.504 -30.1966 Z" id="rect3322-2-2-2-0-7-7-7-7-8-5-1-1-1" stroke="#A4A69A" stroke-width="0.2" stroke-dasharray="" stroke-opacity="1" fill="#010101" fill-opacity="1"/></g></svg>