<svg version="1.1" width="84.0523" height="123.589" xmlns="http://www.w3.org/2000/svg" xmlns:xlink="http://www.w3.org/1999/xlink" id="svg12637" overflow="hidden"><defs id="defs12641"></defs><g id="g12643" transform="matrix(3.77953,0,0,3.77953,-55.4056,152.089)"><rect x="22.7982" y="-40.1402" width="3" height="2" id="rect3296-5-0-2-8-1-5-3-0-6-5-1-2-5-4" stroke="#A4A69A" stroke-width="0.2" stroke-dasharray="" stroke-opacity="1" fill="#010101" fill-opacity="1"/><path d=" M 14.7982 -38.1407 L 14.7982 -35.1409 L 18.1376 -35.1409 C 18.8264 -36.8895 20.4831 -38.0662 22.3611 -38.1407 Z" id="rect2121-8-5-5-3-8-7-4" stroke="#A4A69A" stroke-width="0.2" stroke-dasharray="" stroke-opacity="1" fill="#010101" fill-opacity="1"/><path d=" M 22.6011 -38.1469 C 22.5353 -38.1476 22.4694 -38.1469 22.4037 -38.1448 C 20.5091 -38.0863 18.8314 -36.9049 18.1378 -35.1409 L 22.7985 -35.1409 L 26.7988 -35.1409 L 26.7988 -35.1403 L 30.2983 -35.1403 L 30.2983 -38.1407 L 26.7988 -38.1407 L 22.7985 -38.1407 C 22.7327 -38.1441 22.6669 -38.1462 22.6011 -38.1469 Z" id="rect2121-4-8-1-8-6" stroke="#A4A69A" stroke-width="0.2" stroke-dasharray="" stroke-opacity="1" fill="#010101" fill-opacity="1"/><rect x="30.2981" y="-38.1402" width="1.50011" height="3" id="rect10209-6-6-5" stroke="#A4A69A" stroke-width="0.2" stroke-dasharray="" stroke-opacity="1" fill="#010101" fill-opacity="1"/><path d=" M 18.1376 -35.1409 L 14.7982 -25.1404 L 17.9613 -25.1404 L 20.8258 -33.7192 C 21.109 -34.5681 21.9034 -35.1406 22.7983 -35.1409 Z" id="rect3322-2-2-2-0-7-7-7-7-8-5-0-8-9-0-1" stroke="#A4A69A" stroke-width="0.2" stroke-dasharray="" stroke-opacity="1" fill="#010101" fill-opacity="1"/><rect x="26.2983" y="-35.1403" width="2.99982" height="7.00009" id="rect1355-2-9-0-9-7" stroke="#A4A69A" stroke-width="0.2" stroke-dasharray="" stroke-opacity="1" fill="#010101" fill-opacity="1"/><rect x="31.7982" y="-38.1402" width="3" height="13" id="rect3322-6-2-3-8-3-6-6-6" stroke="#A4A69A" stroke-width="0.2" stroke-dasharray="" stroke-opacity="1" fill="#010101" fill-opacity="1"/><rect x="34.7982" y="-33.1402" width="2" height="3" id="rect3296-5-0-2-8-1-8-3-9-8-0-2-0" stroke="#A4A69A" stroke-width="0.2" stroke-dasharray="" stroke-opacity="1" fill="#010101" fill-opacity="1"/><path d=" M 18.9628 -28.1403 L 17.9613 -25.1404 L 26.2983 -25.1404 L 29.2981 -25.1404 L 29.2981 -28.1403 L 26.2983 -28.1403 Z" id="rect3296-5-0-8-0-0-3-7-1-5" stroke="#A4A69A" stroke-width="0.2" stroke-dasharray="" stroke-opacity="1" fill="#010101" fill-opacity="1"/><rect x="29.298" y="-28.1402" width="2.50017" height="3" id="rect3296-5-0-2-8-1-0-5-2-9-3-2-9-7" stroke="#A4A69A" stroke-width="0.2" stroke-dasharray="" stroke-opacity="1" fill="#010101" fill-opacity="1"/><path d=" M 14.7984 -24.8902 L 14.7984 -21.8904 L 19.2984 -21.8904 L 19.2984 -20.8904 L 22.2982 -20.8904 L 22.2982 -21.8904 L 27.2984 -21.8904 L 27.2984 -20.8904 L 30.2982 -20.8904 L 30.2982 -21.8904 L 34.7982 -21.8904 L 34.7982 -24.8902 Z" id="rect1427" stroke="#A4A69A" stroke-width="0.2" stroke-opacity="1" fill="#010101" fill-opacity="1"/><path d=" M 14.7979 -20.6402 L 14.7979 -17.6404 L 20.1356 -17.6404 L 23.2982 -17.6404 L 24.2996 -20.6402 L 21.137 -20.6402 Z" id="rect3296-5-01-5-0-6-0-4-1-7" stroke="#A4A69A" stroke-width="0.2" stroke-dasharray="" stroke-opacity="1" fill="#010101" fill-opacity="1"/><path d=" M 24.2996 -20.6402 L 23.2982 -17.6404 L 34.7982 -17.6404 L 34.7982 -20.6402 Z" id="rect3296-5-01-5-9-8-5-7-3" stroke="#A4A69A" stroke-width="0.2" stroke-dasharray="" stroke-opacity="1" fill="#010101" fill-opacity="1"/><path d=" M 14.7979 -17.6404 L 14.7979 -7.64046 L 16.7962 -7.64046 L 17.7982 -10.6408 L 17.7982 -17.6404 Z" id="rect3320-0-4-1-2-4-5-4" stroke="#A4A69A" stroke-width="0.2" stroke-dasharray="" stroke-opacity="1" fill="#010101" fill-opacity="1"/><path d=" M 20.1356 -17.6404 L 17.7982 -10.6408 L 17.7982 -10.6403 L 20.9608 -10.6403 L 23.2982 -17.6404 Z" id="rect3322-2-2-7-2-7-03-6-5" stroke="#A4A69A" stroke-width="0.2" stroke-dasharray="" stroke-opacity="1" fill="#010101" fill-opacity="1"/><rect x="23.2981" y="-17.6402" width="3" height="6.99999" id="rect3322-6-0-8-9-1-0-2-8-7" stroke="#A4A69A" stroke-width="0.2" stroke-dasharray="" stroke-opacity="1" fill="#010101" fill-opacity="1"/><path d=" M 31.7979 -17.6404 L 26.298 -10.6403 L 30.1132 -10.6403 L 31.7979 -12.7843 Z" id="rect3322-2-7-4-8-1-1-5-9" stroke="#A4A69A" stroke-width="0.2" stroke-dasharray="" stroke-opacity="1" fill="#010101" fill-opacity="1"/><rect x="31.7981" y="-17.6402" width="3" height="7" id="rect3322-2-4-2-2-6-9-2" stroke="#A4A69A" stroke-width="0.2" stroke-dasharray="" stroke-opacity="1" fill="#010101" fill-opacity="1"/><path d=" M 17.7982 -10.6403 L 16.7962 -7.64046 L 34.7982 -7.64046 L 34.7982 -10.6403 Z" id="rect3296-4-3-4-6-5-1-0" stroke="#A4A69A" stroke-width="0.2" stroke-dasharray="" stroke-opacity="1" fill="#010101" fill-opacity="1"/></g></svg>