<svg version="1.1" width="84.0523" height="123.591" xmlns="http://www.w3.org/2000/svg" xmlns:xlink="http://www.w3.org/1999/xlink" id="svg27457" overflow="hidden"><defs id="defs27461"></defs><g id="g27463" transform="matrix(3.77953,0,0,3.77953,-202.758,-68.3203)"><rect x="61.7862" y="18.1764" width="3" height="2" id="rect3296-5-0-2-8-1-5-3-0-6-2-1-0-1" stroke="#A4A69A" stroke-width="0.2" stroke-dasharray="" stroke-opacity="1" fill="#010101" fill-opacity="1"/><path d=" M 53.7852 20.1759 L 53.7852 23.1757 L 57.1252 23.1757 C 57.8142 21.427 59.4702 20.2503 61.3482 20.1759 Z" id="rect2121-8-5-7-1-3" stroke="#A4A69A" stroke-width="0.2" stroke-dasharray="" stroke-opacity="1" fill="#010101" fill-opacity="1"/><path d=" M 61.4893 20.1698 C 61.4564 20.1702 61.4236 20.1708 61.3911 20.1719 C 59.4961 20.2304 57.8182 21.4119 57.1252 23.1759 L 61.7864 23.1759 L 65.7862 23.1759 L 65.7862 23.1764 L 67.5359 23.1764 L 67.5359 23.1769 L 69.7854 23.1769 L 69.7854 20.176 L 69.2852 20.176 L 67.5359 20.176 L 65.7862 20.176 L 61.7864 20.176 C 61.7204 20.1725 61.6545 20.1705 61.5885 20.1698 C 61.5555 20.1695 61.5221 20.1695 61.4893 20.1698 Z" id="rect2121-0-0-4" stroke="#A4A69A" stroke-width="0.2" stroke-dasharray="" stroke-opacity="1" fill="#010101" fill-opacity="1"/><g id="g27455" stroke="#A4A69A" stroke-opacity="1"><rect x="69.7852" y="20.1764" width="1" height="3.00046" id="rect36142-4" stroke="#A4A69A" stroke-width="0.163294" stroke-dasharray="" stroke-opacity="1" fill="#010101" fill-opacity="1"/><rect x="69.2855" y="30.1765" width="1.5" height="2.99999" id="rect36144-6" stroke="#A4A69A" stroke-width="0.154921" stroke-dasharray="" stroke-opacity="1" fill="#010101" fill-opacity="1"/></g><path d=" M 57.1252 23.1757 L 53.7852 33.1761 L 56.9492 33.1761 L 59.8132 24.5973 C 60.0962 23.7485 60.8912 23.1759 61.7862 23.1757 Z" id="rect3322-2-2-2-0-7-7-7-7-8-5-1-4-4" stroke="#A4A69A" stroke-width="0.2" stroke-dasharray="" stroke-opacity="1" fill="#010101" fill-opacity="1"/><path d=" M 59.6201 25.1762 L 58.6181 28.1761 L 64.0131 28.1761 L 65.2865 28.1761 L 66.2854 28.1761 L 66.2854 25.1762 L 65.2865 25.1762 L 64.0131 25.1762 Z" id="rect14193-7-7-5" stroke="#A4A69A" stroke-width="0.2" stroke-dasharray="" stroke-opacity="1" fill="#010101" fill-opacity="1"/><rect x="66.2854" y="23.1764" width="2.99982" height="7.00009" id="rect1355-5-7-0-2" stroke="#A4A69A" stroke-width="0.2" stroke-dasharray="" stroke-opacity="1" fill="#010101" fill-opacity="1"/><g id="g26555" stroke="#A4A69A" stroke-width="0.2" stroke-dasharray="" stroke-opacity="1" fill="#010101" fill-opacity="1"><rect x="69.2857" y="23.1765" width="1.49988" height="2" id="rect3296-5-0-2-8-8-1-9-3-9-8-1-8-2" stroke="#A4A69A" stroke-width="0.2" stroke-dasharray="" stroke-opacity="1" fill="#010101" fill-opacity="1"/><rect x="69.2857" y="28.1765" width="1.49988" height="2" id="rect3296-5-0-2-8-8-1-4-9-5-53-8-9-9-6" stroke="#A4A69A" stroke-width="0.2" stroke-dasharray="" stroke-opacity="1" fill="#010101" fill-opacity="1"/></g><rect x="69.2855" y="25.1765" width="1.49988" height="3" id="rect3296-5-0-2-8-8-2-7-6-0-4-6-4" stroke="#A4A69A" stroke-width="0.2" stroke-dasharray="" stroke-opacity="1" fill="#010101" fill-opacity="1"/><rect x="70.7852" y="20.1764" width="3" height="13" id="rect3322-6-0-1-0-7-5-9-4-4" stroke="#A4A69A" stroke-width="0.2" stroke-dasharray="" stroke-opacity="1" fill="#010101" fill-opacity="1"/><rect x="73.7852" y="25.1764" width="2" height="3" id="rect3296-5-0-2-8-1-6-2-4-58-0-2-7-8" stroke="#A4A69A" stroke-width="0.2" stroke-dasharray="" stroke-opacity="1" fill="#010101" fill-opacity="1"/><path d=" M 57.9505 30.1765 L 56.9495 33.1763 L 65.2865 33.1763 L 67.7855 33.1763 L 68.2852 33.1763 L 69.2857 33.1763 L 69.2857 30.1765 L 68.2852 30.1765 L 67.7855 30.1765 L 65.2865 30.1765 Z" id="rect3296-5-0-8-0-7-4-9-7" stroke="#A4A69A" stroke-width="0.2" stroke-dasharray="" stroke-opacity="1" fill="#010101" fill-opacity="1"/><rect x="53.7862" y="37.6764" width="19.9998" height="3" id="rect3296-5-8-8-6-6-4-1" stroke="#A4A69A" stroke-width="0.2" stroke-dasharray="" stroke-opacity="1" fill="#010101" fill-opacity="1"/><rect x="53.7862" y="40.6764" width="2.99975" height="6.99998" id="rect20475-0-4-3" stroke="#A4A69A" stroke-width="0.2" stroke-dasharray="" stroke-opacity="1" fill="#010101" fill-opacity="1"/><g id="g20479-6-7-9" stroke="#A4A69A" stroke-width="0.2" stroke-dasharray="" stroke-opacity="1" fill="#010101" fill-opacity="1" transform="matrix(1,0,0,1,-88.4117,-122.208)"><path d=" M 147.535 162.885 L 145.197 169.885 L 148.36 169.885 L 150.697 162.885 Z" id="rect19506-4-3-4" stroke="#A4A69A" stroke-width="0.2" stroke-dasharray="" stroke-opacity="1" fill="#010101" fill-opacity="1"/><path d=" M 156.86 162.885 L 159.197 169.885 L 156.035 169.885 L 153.697 162.885 Z" id="rect19506-1-1-5-2" stroke="#A4A69A" stroke-width="0.2" stroke-dasharray="" stroke-opacity="1" fill="#010101" fill-opacity="1"/></g><rect x="62.2862" y="40.6764" width="3" height="7" id="rect3320-1-5-6-9-6-5-1-9-5-9" stroke="#A4A69A" stroke-width="0.2" stroke-dasharray="" stroke-opacity="1" fill="#010101" fill-opacity="1"/><rect x="70.7862" y="40.6763" width="2.99981" height="7.00009" id="rect20469-5-8-5" stroke="#A4A69A" stroke-width="0.2" stroke-dasharray="" stroke-opacity="1" fill="#010101" fill-opacity="1"/><rect x="53.7862" y="47.6764" width="19.9998" height="3.00008" id="rect20473-6-6-7" stroke="#A4A69A" stroke-width="0.2" stroke-dasharray="" stroke-opacity="1" fill="#010101" fill-opacity="1"/></g></svg>